<?xml version="1.0" encoding="utf-8" standalone="yes"?>
<!DOCTYPE svg PUBLIC "-//W3C//DTD SVG 1.1//EN" "http://www.w3.org/Graphics/SVG/1.1/DTD/svg11.dtd">
<svg width="762" height="331" viewBox="0 0 762 331" style="fill:none;stroke:none;fill-rule:evenodd;clip-rule:evenodd;stroke-linecap:round;stroke-linejoin:round;stroke-miterlimit:1.5;" version="1.1" xmlns="http://www.w3.org/2000/svg" xmlns:xlink="http://www.w3.org/1999/xlink"><style id="fontImports">@import url("https://fonts.googleapis.com/css2?family=Roboto:wght@400;700&amp;display=block");</style><rect id="" x="0" y="0" width="762" height="331" style="fill: #ffffff;"></rect><g id="items" style="isolation: isolate"><g id="blend" style="mix-blend-mode:normal"><g id="g-root-0.cu_sy_8znjqu5bci69-fill" data-item-order="999907025" data-item-id="0.cu_sy_8znjqu5bci69" data-item-class="Part Indexed_0 Fill Stroke ColorFillGray ColorStrokeGray" data-item-index="0" data-renderer-id="0" transform="translate(266.3308410644531, 68)"></g><g id="g-root-0.cu_sy_8znjqu5bci69-fill" data-item-order="999907025" data-item-id="0.cu_sy_8znjqu5bci69" data-item-class="Part Indexed_0 Fill Stroke ColorFillGray ColorStrokeGray" data-item-index="0" data-renderer-id="0" transform="translate(266.3308410644531, 68)"></g><g id="g-root-1.cu_sy_8znjqu5bci6a-fill" data-item-order="999907027" data-item-id="1.cu_sy_8znjqu5bci6a" data-item-class="Part Indexed Indexed_1 Fill Stroke" data-item-index="1" data-renderer-id="0" transform="translate(457.8243408203125, 139.70620727539062)"></g><g id="g-root-1.cu_sy_8znjqu5bci6a-fill" data-item-order="999907027" data-item-id="1.cu_sy_8znjqu5bci6a" data-item-class="Part Indexed Indexed_1 Fill Stroke" data-item-index="1" data-renderer-id="0" transform="translate(457.8243408203125, 139.70620727539062)"></g><g id="g-root-2.cu_sy_40jhy5bciyz-fill" data-item-order="999907029" data-item-id="2.cu_sy_40jhy5bciyz" data-item-class="Part Indexed Fill Stroke" data-item-index="2" data-renderer-id="0" transform="translate(186.2933349609375, 139.7061767578125)"></g><g id="g-root-2.cu_sy_40jhy5bciyz-fill" data-item-order="999907029" data-item-id="2.cu_sy_40jhy5bciyz" data-item-class="Part Indexed Fill Stroke" data-item-index="2" data-renderer-id="0" transform="translate(186.2933349609375, 139.7061767578125)"></g><g id="g-root-tx_componen_141rliu5bchdw-fill" data-item-order="1000000000" data-item-id="tx_componen_141rliu5bchdw" data-item-class="Label Stroke Title ColorFillBlack ColorStrokeBlack" data-item-index="none" data-renderer-id="0" transform="translate(321, 2)"><g id="tx_componen_141rliu5bchdw-fill" stroke="none" fill="#484848"><g><text style="font: bold 20px Roboto, sans-serif; white-space: pre;" font-weight="bold" font-size="20" font-family="Roboto, sans-serif"><tspan x="15.78" y="34" dominant-baseline="ideographic">Core Concepts</tspan></text></g></g></g><g id="g-root-tx_componen_141rliu5bchdw-fill" data-item-order="1000000000" data-item-id="tx_componen_141rliu5bchdw" data-item-class="Label Stroke Title ColorFillBlack ColorStrokeBlack" data-item-index="none" data-renderer-id="0" transform="translate(321, 2)"><g id="tx_componen_141rliu5bchdw-fill" stroke="none" fill="#484848"><g><text style="font: bold 20px Roboto, sans-serif; white-space: pre;" font-weight="bold" font-size="20" font-family="Roboto, sans-serif"><tspan x="15.78" y="34" dominant-baseline="ideographic">Core Concepts</tspan></text></g></g></g><g id="g-root-tx_meta_huo2wm5bcjrj-fill" data-item-order="1000000000" data-item-id="tx_meta_huo2wm5bcjrj" data-item-class="Label Stroke Indexed" data-item-index="2" data-renderer-id="0" transform="translate(50, 140)"><g id="tx_meta_huo2wm5bcjrj-fill" stroke="none" fill="#3bc482"><g><text style="font: bold 20px Roboto, sans-serif; white-space: pre;" font-weight="bold" font-size="20" font-family="Roboto, sans-serif"><tspan x="17.21" y="33" dominant-baseline="ideographic">Meta</tspan></text></g></g></g><g id="g-root-tx_meta_huo2wm5bcjrj-fill" data-item-order="1000000000" data-item-id="tx_meta_huo2wm5bcjrj" data-item-class="Label Stroke Indexed" data-item-index="2" data-renderer-id="0" transform="translate(50, 140)"><g id="tx_meta_huo2wm5bcjrj-fill" stroke="none" fill="#3bc482"><g><text style="font: bold 20px Roboto, sans-serif; white-space: pre;" font-weight="bold" font-size="20" font-family="Roboto, sans-serif"><tspan x="17.21" y="33" dominant-baseline="ideographic">Meta</tspan></text></g></g></g><g id="g-root-1_hssnna5bjitj-fill" data-item-order="1000000000" data-item-id="1_hssnna5bjitj" data-item-class="Icon Stroke InsideFill ColorStrokeGray" data-item-index="none" data-renderer-id="0" transform="translate(332, 140)"></g><g id="g-root-1_hssnna5bjitj-fill" data-item-order="1000000000" data-item-id="1_hssnna5bjitj" data-item-class="Icon Stroke InsideFill ColorStrokeGray" data-item-index="none" data-renderer-id="0" transform="translate(332, 140)"></g><g id="g-root-tx_mask_dfh1va5bche0-fill" data-item-order="1000000000" data-item-id="tx_mask_dfh1va5bche0" data-item-class="Label Stroke Indexed Indexed_1" data-item-index="1" data-renderer-id="0" transform="translate(596, 140)"><g id="tx_mask_dfh1va5bche0-fill" stroke="none" fill="#17b0e3"><g><text style="font: bold 20px Roboto, sans-serif; white-space: pre;" font-weight="bold" font-size="20" font-family="Roboto, sans-serif"><tspan x="12" y="33" dominant-baseline="ideographic">Mask</tspan></text></g></g></g><g id="g-root-tx_mask_dfh1va5bche0-fill" data-item-order="1000000000" data-item-id="tx_mask_dfh1va5bche0" data-item-class="Label Stroke Indexed Indexed_1" data-item-index="1" data-renderer-id="0" transform="translate(596, 140)"><g id="tx_mask_dfh1va5bche0-fill" stroke="none" fill="#17b0e3"><g><text style="font: bold 20px Roboto, sans-serif; white-space: pre;" font-weight="bold" font-size="20" font-family="Roboto, sans-serif"><tspan x="12" y="33" dominant-baseline="ideographic">Mask</tspan></text></g></g></g><g id="g-root-tx_encapsul_v64l9y5bci6l-fill" data-item-order="1000000000" data-item-id="tx_encapsul_v64l9y5bci6l" data-item-class="Label Stroke Indexed ColorFillBlack ColorStrokeBlack" data-item-index="2" data-renderer-id="0" transform="translate(2, 176)"><g id="tx_encapsul_v64l9y5bci6l-fill" stroke="none" fill="#484848"><g><text style="font: 15px Roboto, sans-serif; white-space: pre;" font-weight="15px" font-size="Roboto," font-family="sans-serif"><tspan x="15.48" y="31" dominant-baseline="ideographic">Encapsulates diverse </tspan><tspan x="23.61" y="49" dominant-baseline="ideographic">data types within a </tspan><tspan x="28.58" y="67" dominant-baseline="ideographic">single framework</tspan></text></g></g></g><g id="g-root-tx_encapsul_v64l9y5bci6l-fill" data-item-order="1000000000" data-item-id="tx_encapsul_v64l9y5bci6l" data-item-class="Label Stroke Indexed ColorFillBlack ColorStrokeBlack" data-item-index="2" data-renderer-id="0" transform="translate(2, 176)"><g id="tx_encapsul_v64l9y5bci6l-fill" stroke="none" fill="#484848"><g><text style="font: 15px Roboto, sans-serif; white-space: pre;" font-weight="15px" font-size="Roboto," font-family="sans-serif"><tspan x="15.48" y="31" dominant-baseline="ideographic">Encapsulates diverse </tspan><tspan x="23.61" y="49" dominant-baseline="ideographic">data types within a </tspan><tspan x="28.58" y="67" dominant-baseline="ideographic">single framework</tspan></text></g></g></g><g id="g-root-clou_zqbf065bi4n4-fill" data-item-order="1000000000" data-item-id="clou_zqbf065bi4n4" data-item-class="Icon Stroke Indexed InsideFill InsideColorFill" data-item-index="2" data-renderer-id="0" transform="translate(212, 164)"></g><g id="g-root-clou_zqbf065bi4n4-fill" data-item-order="1000000000" data-item-id="clou_zqbf065bi4n4" data-item-class="Icon Stroke Indexed InsideFill InsideColorFill" data-item-index="2" data-renderer-id="0" transform="translate(212, 164)"></g><g id="g-root-star_dcz5iu5bjjls-fill" data-item-order="1000000000" data-item-id="star_dcz5iu5bjjls" data-item-class="Icon Stroke Indexed Indexed_1 InsideFill InsideColorFill" data-item-index="1" data-renderer-id="0" transform="translate(500, 164)"></g><g id="g-root-star_dcz5iu5bjjls-fill" data-item-order="1000000000" data-item-id="star_dcz5iu5bjjls" data-item-class="Icon Stroke Indexed Indexed_1 InsideFill InsideColorFill" data-item-index="1" data-renderer-id="0" transform="translate(500, 164)"></g><g id="g-root-tx_unifiesd_qqb35i5bciyu-fill" data-item-order="1000000000" data-item-id="tx_unifiesd_qqb35i5bciyu" data-item-class="Label Stroke Indexed Indexed_1 ColorFillBlack ColorStrokeBlack" data-item-index="1" data-renderer-id="0" transform="translate(596, 176)"><g id="tx_unifiesd_qqb35i5bciyu-fill" stroke="none" fill="#484848"><g><text style="font: 15px Roboto, sans-serif; white-space: pre;" font-weight="15px" font-size="Roboto," font-family="sans-serif"><tspan x="12" y="31" dominant-baseline="ideographic">Unifies DIDs across </tspan><tspan x="12" y="49" dominant-baseline="ideographic">ecosystems for </tspan><tspan x="12" y="67" dominant-baseline="ideographic">cohesive identity</tspan></text></g></g></g><g id="g-root-tx_unifiesd_qqb35i5bciyu-fill" data-item-order="1000000000" data-item-id="tx_unifiesd_qqb35i5bciyu" data-item-class="Label Stroke Indexed Indexed_1 ColorFillBlack ColorStrokeBlack" data-item-index="1" data-renderer-id="0" transform="translate(596, 176)"><g id="tx_unifiesd_qqb35i5bciyu-fill" stroke="none" fill="#484848"><g><text style="font: 15px Roboto, sans-serif; white-space: pre;" font-weight="15px" font-size="Roboto," font-family="sans-serif"><tspan x="12" y="31" dominant-baseline="ideographic">Unifies DIDs across </tspan><tspan x="12" y="49" dominant-baseline="ideographic">ecosystems for </tspan><tspan x="12" y="67" dominant-baseline="ideographic">cohesive identity</tspan></text></g></g></g><g id="g-root-0.cu_sy_8znjqu5bci69-stroke" data-item-order="999907025" data-item-id="0.cu_sy_8znjqu5bci69" data-item-class="Part Indexed_0 Fill Stroke ColorFillGray ColorStrokeGray" data-item-index="0" data-renderer-id="0" transform="translate(266.3308410644531, 68)"><g id="0.cu_sy_8znjqu5bci69-stroke" fill="none" stroke-linecap="round" stroke-linejoin="round" stroke-miterlimit="4" stroke="#888888" stroke-width="2"><g><path d="M 238.781731 167.2293C 223.115931 215.2786 177.947131 250 124.668731 250C 70.745531 250 25.129431 214.4331 10.000031 165.4789M 238.781731 92.7707C 223.115931 44.7214 177.947131 10 124.668731 10C 70.745531 10 25.129431 45.5669 10.000031 94.5211"></path></g></g></g><g id="g-root-0.cu_sy_8znjqu5bci69-stroke" data-item-order="999907025" data-item-id="0.cu_sy_8znjqu5bci69" data-item-class="Part Indexed_0 Fill Stroke ColorFillGray ColorStrokeGray" data-item-index="0" data-renderer-id="0" transform="translate(266.3308410644531, 68)"><g id="0.cu_sy_8znjqu5bci69-stroke" fill="none" stroke-linecap="round" stroke-linejoin="round" stroke-miterlimit="4" stroke="#888888" stroke-width="2"><g><path d="M 238.781731 167.2293C 223.115931 215.2786 177.947131 250 124.668731 250C 70.745531 250 25.129431 214.4331 10.000031 165.4789M 238.781731 92.7707C 223.115931 44.7214 177.947131 10 124.668731 10C 70.745531 10 25.129431 45.5669 10.000031 94.5211"></path></g></g></g><g id="g-root-1.cu_sy_8znjqu5bci6a-stroke" data-item-order="999907027" data-item-id="1.cu_sy_8znjqu5bci6a" data-item-class="Part Indexed Indexed_1 Fill Stroke" data-item-index="1" data-renderer-id="0" transform="translate(457.8243408203125, 139.70620727539062)"><g id="1.cu_sy_8znjqu5bci6a-stroke" fill="none" stroke-linecap="round" stroke-linejoin="round" stroke-miterlimit="4" stroke="#17b0e3" stroke-width="2"><g><path d="M 43.941101 24.059189C 52.62738 15.372696 64.627624 10 77.882507 10C 104.392212 10 125.882507 31.490296 125.882507 58C 125.882507 84.50969 104.392212 106 77.882507 106C 64.627685 106 52.627685 100.627396 43.941406 91.941101L 10 58.000305L 43.933288 24.066895C 43.935913 24.064392 43.938476 24.061798 43.941101 24.059189Z"></path></g></g></g><g id="g-root-1.cu_sy_8znjqu5bci6a-stroke" data-item-order="999907027" data-item-id="1.cu_sy_8znjqu5bci6a" data-item-class="Part Indexed Indexed_1 Fill Stroke" data-item-index="1" data-renderer-id="0" transform="translate(457.8243408203125, 139.70620727539062)"><g id="1.cu_sy_8znjqu5bci6a-stroke" fill="none" stroke-linecap="round" stroke-linejoin="round" stroke-miterlimit="4" stroke="#17b0e3" stroke-width="2"><g><path d="M 43.941101 24.059189C 52.62738 15.372696 64.627624 10 77.882507 10C 104.392212 10 125.882507 31.490296 125.882507 58C 125.882507 84.50969 104.392212 106 77.882507 106C 64.627685 106 52.627685 100.627396 43.941406 91.941101L 10 58.000305L 43.933288 24.066895C 43.935913 24.064392 43.938476 24.061798 43.941101 24.059189Z"></path></g></g></g><g id="g-root-2.cu_sy_40jhy5bciyz-stroke" data-item-order="999907029" data-item-id="2.cu_sy_40jhy5bciyz" data-item-class="Part Indexed Fill Stroke" data-item-index="2" data-renderer-id="0" transform="translate(186.2933349609375, 139.7061767578125)"><g id="2.cu_sy_40jhy5bciyz-stroke" fill="none" stroke-linecap="round" stroke-linejoin="round" stroke-miterlimit="4" stroke="#3bc482" stroke-width="2"><g><path d="M 91.94191 24.059204C 83.2556 15.372711 71.255387 10 58.000504 10.000015C 31.490799 10.000015 10.000504 31.49031 10.000504 58.000015C 10.000504 84.50972 31.490814 106 58.000504 106C 71.255326 106 83.255295 100.627411 91.941605 91.941101L 125.883011 58.000305L 91.949692 24.06691C 91.947098 24.064407 91.944504 24.061798 91.94191 24.059204Z"></path></g></g></g><g id="g-root-2.cu_sy_40jhy5bciyz-stroke" data-item-order="999907029" data-item-id="2.cu_sy_40jhy5bciyz" data-item-class="Part Indexed Fill Stroke" data-item-index="2" data-renderer-id="0" transform="translate(186.2933349609375, 139.7061767578125)"><g id="2.cu_sy_40jhy5bciyz-stroke" fill="none" stroke-linecap="round" stroke-linejoin="round" stroke-miterlimit="4" stroke="#3bc482" stroke-width="2"><g><path d="M 91.94191 24.059204C 83.2556 15.372711 71.255387 10 58.000504 10.000015C 31.490799 10.000015 10.000504 31.49031 10.000504 58.000015C 10.000504 84.50972 31.490814 106 58.000504 106C 71.255326 106 83.255295 100.627411 91.941605 91.941101L 125.883011 58.000305L 91.949692 24.06691C 91.947098 24.064407 91.944504 24.061798 91.94191 24.059204Z"></path></g></g></g><g id="g-root-tx_componen_141rliu5bchdw-stroke" data-item-order="1000000000" data-item-id="tx_componen_141rliu5bchdw" data-item-class="Label Stroke Title ColorFillBlack ColorStrokeBlack" data-item-index="none" data-renderer-id="0" transform="translate(321, 2)"></g><g id="g-root-tx_componen_141rliu5bchdw-stroke" data-item-order="1000000000" data-item-id="tx_componen_141rliu5bchdw" data-item-class="Label Stroke Title ColorFillBlack ColorStrokeBlack" data-item-index="none" data-renderer-id="0" transform="translate(321, 2)"></g><g id="g-root-tx_meta_huo2wm5bcjrj-stroke" data-item-order="1000000000" data-item-id="tx_meta_huo2wm5bcjrj" data-item-class="Label Stroke Indexed" data-item-index="2" data-renderer-id="0" transform="translate(50, 140)"></g><g id="g-root-tx_meta_huo2wm5bcjrj-stroke" data-item-order="1000000000" data-item-id="tx_meta_huo2wm5bcjrj" data-item-class="Label Stroke Indexed" data-item-index="2" data-renderer-id="0" transform="translate(50, 140)"></g><g id="g-root-1_hssnna5bjitj-stroke" data-item-order="1000000000" data-item-id="1_hssnna5bjitj" data-item-class="Icon Stroke InsideFill ColorStrokeGray" data-item-index="none" data-renderer-id="0" transform="translate(332, 140)"><g id="1_hssnna5bjitj-stroke" fill="none" stroke-linecap="round" stroke-linejoin="round" stroke-miterlimit="4" stroke="#888888" stroke-width="2"><g><path d="M 58 104C 77.882248 104 94 87.882248 94 68L 94 48C 94.011131 39.141884 90.744019 30.592958 84.827995 24M 22 56L 22 68C 21.996078 82.476089 30.663399 95.54641 44 101.176003M 76 16.823999C 65.170715 10.571867 51.872803 10.387073 40.87397 16.335871C 29.875134 22.28467 22.75108 33.514832 22.056 46M 48 26.176001C 55.431149 22.769939 64.084946 23.380489 70.964249 27.79619C 77.843552 32.211891 82.002243 39.825455 82 48L 82 68C 82.000885 70.023804 81.746887 72.039665 81.243996 74M 75.888 84C 69.254066 91.416458 58.731663 93.9701 49.436172 90.419495C 40.140682 86.868889 34.000252 77.950531 34 68L 34 48C 33.992226 42.095009 36.169285 36.395905 40.112 32M 46 68C 46 74.627419 51.372585 80 58 80C 64.627419 80 70 74.627419 70 68L 70 48C 70 41.372581 64.627419 36 58 36C 51.372585 36 46 41.372581 46 48L 46 60M 58 48L 58 60M 58 68L 58 72"></path></g></g></g><g id="g-root-1_hssnna5bjitj-stroke" data-item-order="1000000000" data-item-id="1_hssnna5bjitj" data-item-class="Icon Stroke InsideFill ColorStrokeGray" data-item-index="none" data-renderer-id="0" transform="translate(332, 140)"><g id="1_hssnna5bjitj-stroke" fill="none" stroke-linecap="round" stroke-linejoin="round" stroke-miterlimit="4" stroke="#888888" stroke-width="2"><g><path d="M 58 104C 77.882248 104 94 87.882248 94 68L 94 48C 94.011131 39.141884 90.744019 30.592958 84.827995 24M 22 56L 22 68C 21.996078 82.476089 30.663399 95.54641 44 101.176003M 76 16.823999C 65.170715 10.571867 51.872803 10.387073 40.87397 16.335871C 29.875134 22.28467 22.75108 33.514832 22.056 46M 48 26.176001C 55.431149 22.769939 64.084946 23.380489 70.964249 27.79619C 77.843552 32.211891 82.002243 39.825455 82 48L 82 68C 82.000885 70.023804 81.746887 72.039665 81.243996 74M 75.888 84C 69.254066 91.416458 58.731663 93.9701 49.436172 90.419495C 40.140682 86.868889 34.000252 77.950531 34 68L 34 48C 33.992226 42.095009 36.169285 36.395905 40.112 32M 46 68C 46 74.627419 51.372585 80 58 80C 64.627419 80 70 74.627419 70 68L 70 48C 70 41.372581 64.627419 36 58 36C 51.372585 36 46 41.372581 46 48L 46 60M 58 48L 58 60M 58 68L 58 72"></path></g></g></g><g id="g-root-tx_mask_dfh1va5bche0-stroke" data-item-order="1000000000" data-item-id="tx_mask_dfh1va5bche0" data-item-class="Label Stroke Indexed Indexed_1" data-item-index="1" data-renderer-id="0" transform="translate(596, 140)"></g><g id="g-root-tx_mask_dfh1va5bche0-stroke" data-item-order="1000000000" data-item-id="tx_mask_dfh1va5bche0" data-item-class="Label Stroke Indexed Indexed_1" data-item-index="1" data-renderer-id="0" transform="translate(596, 140)"></g><g id="g-root-tx_encapsul_v64l9y5bci6l-stroke" data-item-order="1000000000" data-item-id="tx_encapsul_v64l9y5bci6l" data-item-class="Label Stroke Indexed ColorFillBlack ColorStrokeBlack" data-item-index="2" data-renderer-id="0" transform="translate(2, 176)"></g><g id="g-root-tx_encapsul_v64l9y5bci6l-stroke" data-item-order="1000000000" data-item-id="tx_encapsul_v64l9y5bci6l" data-item-class="Label Stroke Indexed ColorFillBlack ColorStrokeBlack" data-item-index="2" data-renderer-id="0" transform="translate(2, 176)"></g><g id="g-root-clou_zqbf065bi4n4-stroke" data-item-order="1000000000" data-item-id="clou_zqbf065bi4n4" data-item-class="Icon Stroke Indexed InsideFill InsideColorFill" data-item-index="2" data-renderer-id="0" transform="translate(212, 164)"><g id="clou_zqbf065bi4n4-stroke" fill="none" stroke-linecap="round" stroke-linejoin="round" stroke-miterlimit="4" stroke="#3bc482" stroke-width="2"><g><path d="M 42.889999 56.967999C 42.694687 56.335484 42.654892 55.665176 42.773998 55.014L 43.174 52.841999C 43.399326 51.612999 43.108414 50.345451 42.369724 49.337704C 41.631039 48.329956 40.509827 47.671024 39.269997 47.515999L 38.124001 47.369999C 36.728104 47.186962 35.536583 46.271584 35 44.970001L 33.279999 38.970001M 53.984001 57C 53.616329 52.356087 51.604481 47.995544 48.309998 44.702C 40.384079 36.929619 27.658627 37.05228 19.884001 44.976002C 16.634094 48.211929 14.567249 52.44706 14.016 57M 15.823999 51.534L 22.478001 51.534C 25.478012 51.534 27.91 53.965988 27.91 56.966M 44.799999 33C 44.799999 33 51.872002 32.077999 51.872002 25.142C 51.873516 23.009327 51.006592 20.96797 49.470898 19.488121C 47.935207 18.008274 45.863155 17.217522 43.731998 17.298C 41.589928 12.759104 36.643707 10.249483 31.715801 11.201202C 26.787893 12.152923 23.131884 16.323879 22.834 21.334C 21.096424 20.969524 19.287125 21.407703 17.90884 22.526783C 16.530554 23.645866 15.730139 25.326611 15.73 27.102001C 15.73 33.09 22.014 32.996002 22.014 32.996002Z"></path></g></g></g><g id="g-root-clou_zqbf065bi4n4-stroke" data-item-order="1000000000" data-item-id="clou_zqbf065bi4n4" data-item-class="Icon Stroke Indexed InsideFill InsideColorFill" data-item-index="2" data-renderer-id="0" transform="translate(212, 164)"><g id="clou_zqbf065bi4n4-stroke" fill="none" stroke-linecap="round" stroke-linejoin="round" stroke-miterlimit="4" stroke="#3bc482" stroke-width="2"><g><path d="M 42.889999 56.967999C 42.694687 56.335484 42.654892 55.665176 42.773998 55.014L 43.174 52.841999C 43.399326 51.612999 43.108414 50.345451 42.369724 49.337704C 41.631039 48.329956 40.509827 47.671024 39.269997 47.515999L 38.124001 47.369999C 36.728104 47.186962 35.536583 46.271584 35 44.970001L 33.279999 38.970001M 53.984001 57C 53.616329 52.356087 51.604481 47.995544 48.309998 44.702C 40.384079 36.929619 27.658627 37.05228 19.884001 44.976002C 16.634094 48.211929 14.567249 52.44706 14.016 57M 15.823999 51.534L 22.478001 51.534C 25.478012 51.534 27.91 53.965988 27.91 56.966M 44.799999 33C 44.799999 33 51.872002 32.077999 51.872002 25.142C 51.873516 23.009327 51.006592 20.96797 49.470898 19.488121C 47.935207 18.008274 45.863155 17.217522 43.731998 17.298C 41.589928 12.759104 36.643707 10.249483 31.715801 11.201202C 26.787893 12.152923 23.131884 16.323879 22.834 21.334C 21.096424 20.969524 19.287125 21.407703 17.90884 22.526783C 16.530554 23.645866 15.730139 25.326611 15.73 27.102001C 15.73 33.09 22.014 32.996002 22.014 32.996002Z"></path></g></g></g><g id="g-root-star_dcz5iu5bjjls-stroke" data-item-order="1000000000" data-item-id="star_dcz5iu5bjjls" data-item-class="Icon Stroke Indexed Indexed_1 InsideFill InsideColorFill" data-item-index="1" data-renderer-id="0" transform="translate(500, 164)"><g id="star_dcz5iu5bjjls-stroke" fill="none" stroke-linecap="round" stroke-linejoin="round" stroke-miterlimit="4" stroke="#17b0e3" stroke-width="2"><g><path d="M 14 12L 54 12C 54 12 56 12 56 14L 56 54C 56 54 56 56 54 56L 14 56C 14 56 12 56 12 54L 12 14C 12 14 12 12 14 12M 35.917999 19.200001L 40.200001 28L 48.52 28C 49.381733 27.965927 50.171967 28.476896 50.494495 29.276718C 50.817028 30.07654 50.60231 30.992758 49.958 31.566L 42.734001 37.765999L 46.734001 46.966C 47.095493 47.829704 46.865658 48.827759 46.162819 49.446369C 45.459976 50.06498 44.440815 50.166229 43.629997 49.697998L 33.954002 44.245998L 24.282 49.706001C 23.471088 50.175797 22.450752 50.075314 21.747063 49.456356C 21.043375 48.837399 20.813515 47.838226 21.175999 46.973999L 25.175999 37.774002L 17.952 31.573999C 17.29961 31.003763 17.078621 30.083622 17.400888 29.279305C 17.723156 28.474987 18.518356 27.962004 19.383999 28L 27.708 28L 32 19.200001C 32.376038 18.464195 33.132675 18.00116 33.959 18.00116C 34.785324 18.00116 35.541962 18.464195 35.917999 19.200001Z"></path></g></g></g><g id="g-root-star_dcz5iu5bjjls-stroke" data-item-order="1000000000" data-item-id="star_dcz5iu5bjjls" data-item-class="Icon Stroke Indexed Indexed_1 InsideFill InsideColorFill" data-item-index="1" data-renderer-id="0" transform="translate(500, 164)"><g id="star_dcz5iu5bjjls-stroke" fill="none" stroke-linecap="round" stroke-linejoin="round" stroke-miterlimit="4" stroke="#17b0e3" stroke-width="2"><g><path d="M 14 12L 54 12C 54 12 56 12 56 14L 56 54C 56 54 56 56 54 56L 14 56C 14 56 12 56 12 54L 12 14C 12 14 12 12 14 12M 35.917999 19.200001L 40.200001 28L 48.52 28C 49.381733 27.965927 50.171967 28.476896 50.494495 29.276718C 50.817028 30.07654 50.60231 30.992758 49.958 31.566L 42.734001 37.765999L 46.734001 46.966C 47.095493 47.829704 46.865658 48.827759 46.162819 49.446369C 45.459976 50.06498 44.440815 50.166229 43.629997 49.697998L 33.954002 44.245998L 24.282 49.706001C 23.471088 50.175797 22.450752 50.075314 21.747063 49.456356C 21.043375 48.837399 20.813515 47.838226 21.175999 46.973999L 25.175999 37.774002L 17.952 31.573999C 17.29961 31.003763 17.078621 30.083622 17.400888 29.279305C 17.723156 28.474987 18.518356 27.962004 19.383999 28L 27.708 28L 32 19.200001C 32.376038 18.464195 33.132675 18.00116 33.959 18.00116C 34.785324 18.00116 35.541962 18.464195 35.917999 19.200001Z"></path></g></g></g><g id="g-root-tx_unifiesd_qqb35i5bciyu-stroke" data-item-order="1000000000" data-item-id="tx_unifiesd_qqb35i5bciyu" data-item-class="Label Stroke Indexed Indexed_1 ColorFillBlack ColorStrokeBlack" data-item-index="1" data-renderer-id="0" transform="translate(596, 176)"></g><g id="g-root-tx_unifiesd_qqb35i5bciyu-stroke" data-item-order="1000000000" data-item-id="tx_unifiesd_qqb35i5bciyu" data-item-class="Label Stroke Indexed Indexed_1 ColorFillBlack ColorStrokeBlack" data-item-index="1" data-renderer-id="0" transform="translate(596, 176)"></g></g></g></svg>