<?xml version="1.0" encoding="utf-8" standalone="yes"?>
<!DOCTYPE svg PUBLIC "-//W3C//DTD SVG 1.1//EN" "http://www.w3.org/Graphics/SVG/1.1/DTD/svg11.dtd">
<svg width="912" height="468" viewBox="0 0 912 468" style="fill:none;stroke:none;fill-rule:evenodd;clip-rule:evenodd;stroke-linecap:round;stroke-linejoin:round;stroke-miterlimit:1.5;" version="1.1" xmlns="http://www.w3.org/2000/svg" xmlns:xlink="http://www.w3.org/1999/xlink"><style id="fontImports"></style><rect id="" x="0" y="0" width="912" height="468" style="fill: #ffffff;"></rect><g id="items" style="isolation: isolate"><g id="blend" style="mix-blend-mode:normal"><g id="g-root-3.cu_sy_qqaqie7tbnd8-fill" data-item-order="999928088" data-item-id="3.cu_sy_qqaqie7tbnd8" data-item-class="Part Indexed Fill Stroke" data-item-index="3" data-renderer-id="0" transform="translate(397.9998779296875, 110)"><g id="3.cu_sy_qqaqie7tbnd8-fill" stroke="none" fill="#7fb0ff"><g><path d="M 34 10L 34 178L 10 178L 58 225.746L 106 178L 82 178L 82 10L 34 10Z"></path></g></g></g><g id="g-root-3.cu_sy_qqaqie7tbnd8-fill" data-item-order="999928088" data-item-id="3.cu_sy_qqaqie7tbnd8" data-item-class="Part Indexed Fill Stroke" data-item-index="3" data-renderer-id="0" transform="translate(397.9998779296875, 110)"><g id="3.cu_sy_qqaqie7tbnd8-fill" stroke="none" fill="#7fb0ff"><g><path d="M 34 10L 34 178L 10 178L 58 225.746L 106 178L 82 178L 82 10L 34 10Z"></path></g></g></g><g id="g-root-2.cu_sy_zlxqra7tbmkj-fill" data-item-order="999928090" data-item-id="2.cu_sy_zlxqra7tbmkj" data-item-class="Part Indexed Fill Stroke" data-item-index="2" data-renderer-id="0" transform="translate(481.99957275390625, 110)"><g id="2.cu_sy_zlxqra7tbmkj-fill" stroke="none" fill="#628acb"><g><path d="M 10 34L 10 10L 58.000061 10L 58.000061 34C 58.000061 53.882202 74.118713 70 94.000854 70L 94.000854 47.330902L 140.669983 94L 94.000976 140.669006L 94.000976 118C 47.609009 118 10 80.391907 10 34Z"></path></g></g></g><g id="g-root-2.cu_sy_zlxqra7tbmkj-fill" data-item-order="999928090" data-item-id="2.cu_sy_zlxqra7tbmkj" data-item-class="Part Indexed Fill Stroke" data-item-index="2" data-renderer-id="0" transform="translate(481.99957275390625, 110)"><g id="2.cu_sy_zlxqra7tbmkj-fill" stroke="none" fill="#628acb"><g><path d="M 10 34L 10 10L 58.000061 10L 58.000061 34C 58.000061 53.882202 74.118713 70 94.000854 70L 94.000854 47.330902L 140.669983 94L 94.000976 140.669006L 94.000976 118C 47.609009 118 10 80.391907 10 34Z"></path></g></g></g><g id="g-root-1.cu_sy_zlxqra7tbmki-fill" data-item-order="999928092" data-item-id="1.cu_sy_zlxqra7tbmki" data-item-class="Part Indexed Indexed_1 Fill Stroke" data-item-index="1" data-renderer-id="0" transform="translate(279.3319091796875, 110)"><g id="1.cu_sy_zlxqra7tbmki-fill" stroke="none" fill="#466598"><g><path d="M 140.67 34L 140.67 10L 92.6699 10L 92.6699 34C 92.6699 53.8822 76.5513 70 56.6691 70L 56.6691 47.3309L 10 94L 56.669 140.669L 56.669 118C 103.061 118 140.67 80.3919 140.67 34Z"></path></g></g></g><g id="g-root-1.cu_sy_zlxqra7tbmki-fill" data-item-order="999928092" data-item-id="1.cu_sy_zlxqra7tbmki" data-item-class="Part Indexed Indexed_1 Fill Stroke" data-item-index="1" data-renderer-id="0" transform="translate(279.3319091796875, 110)"><g id="1.cu_sy_zlxqra7tbmki-fill" stroke="none" fill="#466598"><g><path d="M 140.67 34L 140.67 10L 92.6699 10L 92.6699 34C 92.6699 53.8822 76.5513 70 56.6691 70L 56.6691 47.3309L 10 94L 56.669 140.669L 56.669 118C 103.061 118 140.67 80.3919 140.67 34Z"></path></g></g></g><g id="g-root-tx_allowsme_ddl9yu7tbmrv-fill" data-item-order="1000000000" data-item-id="tx_allowsme_ddl9yu7tbmrv" data-item-class="Label Stroke Indexed" data-item-index="3" data-renderer-id="0" transform="translate(314, 374)"><g id="tx_allowsme_ddl9yu7tbmrv-fill" stroke="none" fill="#484848"><g><text style="font: 20px Arial, Helvetica, sans-serif; white-space: pre;" font-weight="20px" font-size="Arial," font-family="Helvetica, sans-serif"><tspan x="19.73" y="33" dominant-baseline="ideographic">Allows Meta (VC) issuance </tspan><tspan x="16.38" y="57" dominant-baseline="ideographic">without trusted third parties, </tspan><tspan x="56.56" y="81" dominant-baseline="ideographic">enhancing privacy.</tspan></text></g></g></g><g id="g-root-tx_howtoenh_1414rsm7tboy1-fill" data-item-order="1000000000" data-item-id="tx_howtoenh_1414rsm7tboy1" data-item-class="Label Stroke Title ColorFillBlack ColorStrokeBlack" data-item-index="none" data-renderer-id="0" transform="translate(302, 2)"><g id="tx_howtoenh_1414rsm7tboy1-fill" stroke="none" fill="#484848"><g><text style="font: bold 25px Arial, Helvetica, sans-serif; white-space: pre;" font-weight="bold" font-size="25" font-family="Arial, Helvetica, sans-serif"><tspan x="32.45" y="42" dominant-baseline="ideographic">How to enhance the </tspan><tspan x="14.36" y="72" dominant-baseline="ideographic">security and privacy of </tspan><tspan x="28.27" y="102" dominant-baseline="ideographic">Meta (VC) issuance?</tspan></text></g></g></g><g id="g-root-tx_implemen_1hcla5y7tbnd4-fill" data-item-order="1000000000" data-item-id="tx_implemen_1hcla5y7tbnd4" data-item-class="Label Stroke Indexed Indexed_1 ColorFillBlack ColorStrokeBlack" data-item-index="1" data-renderer-id="0" transform="translate(122, 182)"><g id="tx_implemen_1hcla5y7tbnd4-fill" stroke="none" fill="#484848"><g><text style="font: bold 20px Arial, Helvetica, sans-serif; white-space: pre;" font-weight="bold" font-size="20" font-family="Arial, Helvetica, sans-serif"><tspan x="23.09" y="33" dominant-baseline="ideographic">Online Status</tspan></text></g></g></g><g id="g-root-tx_implemen_1hcla5y7tbnd4-fill" data-item-order="1000000000" data-item-id="tx_implemen_1hcla5y7tbnd4" data-item-class="Label Stroke Indexed Indexed_1 ColorFillBlack ColorStrokeBlack" data-item-index="1" data-renderer-id="0" transform="translate(122, 182)"><g id="tx_implemen_1hcla5y7tbnd4-fill" stroke="none" fill="#484848"><g><text style="font: bold 20px Arial, Helvetica, sans-serif; white-space: pre;" font-weight="bold" font-size="20" font-family="Arial, Helvetica, sans-serif"><tspan x="23.09" y="33" dominant-baseline="ideographic">Online Status</tspan></text></g></g></g><g id="g-root-onli_4j77w67tfw91-fill" data-item-order="1000000000" data-item-id="onli_4j77w67tfw91" data-item-class="Icon Stroke Indexed Indexed_1 InsideFill InsideColorFill" data-item-index="1" data-renderer-id="0" transform="translate(308, 176)"></g><g id="g-root-onli_4j77w67tfw91-fill" data-item-order="1000000000" data-item-id="onli_4j77w67tfw91" data-item-class="Icon Stroke Indexed Indexed_1 InsideFill InsideColorFill" data-item-index="1" data-renderer-id="0" transform="translate(308, 176)"></g><g id="g-root-1_8z0q0m7tfvgs-fill" data-item-order="1000000000" data-item-id="1_8z0q0m7tfvgs" data-item-class="Icon Stroke Indexed InsideFill InsideColorFill" data-item-index="2" data-renderer-id="0" transform="translate(548, 176)"></g><g id="g-root-1_8z0q0m7tfvgs-fill" data-item-order="1000000000" data-item-id="1_8z0q0m7tfvgs" data-item-class="Icon Stroke Indexed InsideFill InsideColorFill" data-item-index="2" data-renderer-id="0" transform="translate(548, 176)"></g><g id="g-root-tx_usecrite_1unfbg67tboxy-fill" data-item-order="1000000000" data-item-id="tx_usecrite_1unfbg67tboxy" data-item-class="Label Stroke Indexed ColorFillBlack ColorStrokeBlack" data-item-index="2" data-renderer-id="0" transform="translate(626, 182)"><g id="tx_usecrite_1unfbg67tboxy-fill" stroke="none" fill="#484848"><g><text style="font: bold 20px Arial, Helvetica, sans-serif; white-space: pre;" font-weight="bold" font-size="20" font-family="Arial, Helvetica, sans-serif"><tspan x="12" y="33" dominant-baseline="ideographic">Use Criteria-Based Proof</tspan></text></g></g></g><g id="g-root-tx_usecrite_1unfbg67tboxy-fill" data-item-order="1000000000" data-item-id="tx_usecrite_1unfbg67tboxy" data-item-class="Label Stroke Indexed ColorFillBlack ColorStrokeBlack" data-item-index="2" data-renderer-id="0" transform="translate(626, 182)"><g id="tx_usecrite_1unfbg67tboxy-fill" stroke="none" fill="#484848"><g><text style="font: bold 20px Arial, Helvetica, sans-serif; white-space: pre;" font-weight="bold" font-size="20" font-family="Arial, Helvetica, sans-serif"><tspan x="12" y="33" dominant-baseline="ideographic">Use Criteria-Based Proof</tspan></text></g></g></g><g id="g-root-tx_allowsfo_1lsesae7tbmkv-fill" data-item-order="1000000000" data-item-id="tx_allowsfo_1lsesae7tbmkv" data-item-class="Label Stroke Indexed Indexed_1" data-item-index="1" data-renderer-id="0" transform="translate(2, 218)"><g id="tx_allowsfo_1lsesae7tbmkv-fill" stroke="none" fill="#484848"><g><text style="font: 20px Arial, Helvetica, sans-serif; white-space: pre;" font-weight="20px" font-size="Arial," font-family="Helvetica, sans-serif"><tspan x="42.25" y="33" dominant-baseline="ideographic">Allows for offline issuance </tspan><tspan x="17.36" y="57" dominant-baseline="ideographic">and later online publishing of </tspan><tspan x="175.31" y="81" dominant-baseline="ideographic">Meta (VC).</tspan></text></g></g></g><g id="g-root-tx_allowsfo_1lsesae7tbmkv-fill" data-item-order="1000000000" data-item-id="tx_allowsfo_1lsesae7tbmkv" data-item-class="Label Stroke Indexed Indexed_1" data-item-index="1" data-renderer-id="0" transform="translate(2, 218)"><g id="tx_allowsfo_1lsesae7tbmkv-fill" stroke="none" fill="#484848"><g><text style="font: 20px Arial, Helvetica, sans-serif; white-space: pre;" font-weight="20px" font-size="Arial," font-family="Helvetica, sans-serif"><tspan x="42.25" y="33" dominant-baseline="ideographic">Allows for offline issuance </tspan><tspan x="17.36" y="57" dominant-baseline="ideographic">and later online publishing of </tspan><tspan x="175.31" y="81" dominant-baseline="ideographic">Meta (VC).</tspan></text></g></g></g><g id="g-root-tx_enablesu_1unfbg67tboxx-fill" data-item-order="1000000000" data-item-id="tx_enablesu_1unfbg67tboxx" data-item-class="Label Stroke Indexed" data-item-index="2" data-renderer-id="0" transform="translate(626, 218)"><g id="tx_enablesu_1unfbg67tboxx-fill" stroke="none" fill="#484848"><g><text style="font: 20px Arial, Helvetica, sans-serif; white-space: pre;" font-weight="20px" font-size="Arial," font-family="Helvetica, sans-serif"><tspan x="12" y="33" dominant-baseline="ideographic">Enables users to prove </tspan><tspan x="12" y="57" dominant-baseline="ideographic">criteria without disclosing full </tspan><tspan x="12" y="81" dominant-baseline="ideographic">Meta (VC).</tspan></text></g></g></g><g id="g-root-tx_enablesu_1unfbg67tboxx-fill" data-item-order="1000000000" data-item-id="tx_enablesu_1unfbg67tboxx" data-item-class="Label Stroke Indexed" data-item-index="2" data-renderer-id="0" transform="translate(626, 218)"><g id="tx_enablesu_1unfbg67tboxx-fill" stroke="none" fill="#484848"><g><text style="font: 20px Arial, Helvetica, sans-serif; white-space: pre;" font-weight="20px" font-size="Arial," font-family="Helvetica, sans-serif"><tspan x="12" y="33" dominant-baseline="ideographic">Enables users to prove </tspan><tspan x="12" y="57" dominant-baseline="ideographic">criteria without disclosing full </tspan><tspan x="12" y="81" dominant-baseline="ideographic">Meta (VC).</tspan></text></g></g></g><g id="g-root-kips_hunq9i7tfuo3-fill" data-item-order="1000000000" data-item-id="kips_hunq9i7tfuo3" data-item-class="Icon Stroke Indexed InsideFill InsideColorFill" data-item-index="3" data-renderer-id="0" transform="translate(428, 260)"></g><g id="g-root-kips_hunq9i7tfuo3-fill" data-item-order="1000000000" data-item-id="kips_hunq9i7tfuo3" data-item-class="Icon Stroke Indexed InsideFill InsideColorFill" data-item-index="3" data-renderer-id="0" transform="translate(428, 260)"></g><g id="g-root-tx_adoptzkp_24rli7tbocs-fill" data-item-order="1000000000" data-item-id="tx_adoptzkp_24rli7tbocs" data-item-class="Label Stroke Indexed ColorFillBlack ColorStrokeBlack" data-item-index="3" data-renderer-id="0" transform="translate(356, 338)"><g id="tx_adoptzkp_24rli7tbocs-fill" stroke="none" fill="#484848"><g><text style="font: bold 20px Arial, Helvetica, sans-serif; white-space: pre;" font-weight="bold" font-size="20" font-family="Arial, Helvetica, sans-serif"><tspan x="16.28" y="33" dominant-baseline="ideographic">Adopt ZKP Issuer</tspan></text></g></g></g><g id="g-root-tx_adoptzkp_24rli7tbocs-fill" data-item-order="1000000000" data-item-id="tx_adoptzkp_24rli7tbocs" data-item-class="Label Stroke Indexed ColorFillBlack ColorStrokeBlack" data-item-index="3" data-renderer-id="0" transform="translate(356, 338)"><g id="tx_adoptzkp_24rli7tbocs-fill" stroke="none" fill="#484848"><g><text style="font: bold 20px Arial, Helvetica, sans-serif; white-space: pre;" font-weight="bold" font-size="20" font-family="Arial, Helvetica, sans-serif"><tspan x="16.28" y="33" dominant-baseline="ideographic">Adopt ZKP Issuer</tspan></text></g></g></g><g id="g-root-tx_allowsme_ddl9yu7tbmrv-fill" data-item-order="1000000000" data-item-id="tx_allowsme_ddl9yu7tbmrv" data-item-class="Label Stroke Indexed" data-item-index="3" data-renderer-id="0" transform="translate(314, 374)"><g id="tx_allowsme_ddl9yu7tbmrv-fill" stroke="none" fill="#484848"><g><text style="font: 20px Arial, Helvetica, sans-serif; white-space: pre;" font-weight="20px" font-size="Arial," font-family="Helvetica, sans-serif"><tspan x="19.73" y="33" dominant-baseline="ideographic">Allows Meta (VC) issuance </tspan><tspan x="16.38" y="57" dominant-baseline="ideographic">without trusted third parties, </tspan><tspan x="56.56" y="81" dominant-baseline="ideographic">enhancing privacy.</tspan></text></g></g></g><g id="g-root-tx_howtoenh_1414rsm7tboy1-fill" data-item-order="1000000000" data-item-id="tx_howtoenh_1414rsm7tboy1" data-item-class="Label Stroke Title ColorFillBlack ColorStrokeBlack" data-item-index="none" data-renderer-id="0" transform="translate(302, 2)"><g id="tx_howtoenh_1414rsm7tboy1-fill" stroke="none" fill="#484848"><g><text style="font: bold 25px Arial, Helvetica, sans-serif; white-space: pre;" font-weight="bold" font-size="25" font-family="Arial, Helvetica, sans-serif"><tspan x="32.45" y="42" dominant-baseline="ideographic">How to enhance the </tspan><tspan x="14.36" y="72" dominant-baseline="ideographic">security and privacy of </tspan><tspan x="28.27" y="102" dominant-baseline="ideographic">Meta (VC) issuance?</tspan></text></g></g></g><g id="g-root-3.cu_sy_qqaqie7tbnd8-stroke" data-item-order="999928088" data-item-id="3.cu_sy_qqaqie7tbnd8" data-item-class="Part Indexed Fill Stroke" data-item-index="3" data-renderer-id="0" transform="translate(397.9998779296875, 110)"><g id="3.cu_sy_qqaqie7tbnd8-stroke" fill="none" stroke-linecap="butt" stroke-linejoin="miter" stroke-miterlimit="4" stroke="#7fb0ff" stroke-width="1"><g><path d="M 34 10L 34 178L 10 178L 58 225.7461L 106 178L 82 178L 82 10L 34 10Z"></path></g></g></g><g id="g-root-3.cu_sy_qqaqie7tbnd8-stroke" data-item-order="999928088" data-item-id="3.cu_sy_qqaqie7tbnd8" data-item-class="Part Indexed Fill Stroke" data-item-index="3" data-renderer-id="0" transform="translate(397.9998779296875, 110)"><g id="3.cu_sy_qqaqie7tbnd8-stroke" fill="none" stroke-linecap="butt" stroke-linejoin="miter" stroke-miterlimit="4" stroke="#7fb0ff" stroke-width="1"><g><path d="M 34 10L 34 178L 10 178L 58 225.7461L 106 178L 82 178L 82 10L 34 10Z"></path></g></g></g><g id="g-root-2.cu_sy_zlxqra7tbmkj-stroke" data-item-order="999928090" data-item-id="2.cu_sy_zlxqra7tbmkj" data-item-class="Part Indexed Fill Stroke" data-item-index="2" data-renderer-id="0" transform="translate(481.99957275390625, 110)"><g id="2.cu_sy_zlxqra7tbmkj-stroke" fill="none" stroke-linecap="butt" stroke-linejoin="miter" stroke-miterlimit="4" stroke="#628acb" stroke-width="1"><g><path d="M 10.000305 34L 10.000305 10L 58.000061 10L 58.000061 34C 58.000061 53.882202 74.118713 70 94.000854 70L 94.000854 47.330902L 140.669983 94L 94.000976 140.669006L 94.000976 117.999908C 47.609009 117.999908 10.000305 80.391907 10.000305 34Z"></path></g></g></g><g id="g-root-2.cu_sy_zlxqra7tbmkj-stroke" data-item-order="999928090" data-item-id="2.cu_sy_zlxqra7tbmkj" data-item-class="Part Indexed Fill Stroke" data-item-index="2" data-renderer-id="0" transform="translate(481.99957275390625, 110)"><g id="2.cu_sy_zlxqra7tbmkj-stroke" fill="none" stroke-linecap="butt" stroke-linejoin="miter" stroke-miterlimit="4" stroke="#628acb" stroke-width="1"><g><path d="M 10.000305 34L 10.000305 10L 58.000061 10L 58.000061 34C 58.000061 53.882202 74.118713 70 94.000854 70L 94.000854 47.330902L 140.669983 94L 94.000976 140.669006L 94.000976 117.999908C 47.609009 117.999908 10.000305 80.391907 10.000305 34Z"></path></g></g></g><g id="g-root-1.cu_sy_zlxqra7tbmki-stroke" data-item-order="999928092" data-item-id="1.cu_sy_zlxqra7tbmki" data-item-class="Part Indexed Indexed_1 Fill Stroke" data-item-index="1" data-renderer-id="0" transform="translate(279.3319091796875, 110)"><g id="1.cu_sy_zlxqra7tbmki-stroke" fill="none" stroke-linecap="butt" stroke-linejoin="miter" stroke-miterlimit="4" stroke="#466598" stroke-width="1"><g><path d="M 140.6697 34L 140.6697 10L 92.6699 10L 92.6699 34C 92.6699 53.8822 76.5513 70 56.6691 70L 56.6691 47.3309L 10 94L 56.669 140.669L 56.669 117.9999C 103.061 117.9999 140.6697 80.3919 140.6697 34Z"></path></g></g></g><g id="g-root-1.cu_sy_zlxqra7tbmki-stroke" data-item-order="999928092" data-item-id="1.cu_sy_zlxqra7tbmki" data-item-class="Part Indexed Indexed_1 Fill Stroke" data-item-index="1" data-renderer-id="0" transform="translate(279.3319091796875, 110)"><g id="1.cu_sy_zlxqra7tbmki-stroke" fill="none" stroke-linecap="butt" stroke-linejoin="miter" stroke-miterlimit="4" stroke="#466598" stroke-width="1"><g><path d="M 140.6697 34L 140.6697 10L 92.6699 10L 92.6699 34C 92.6699 53.8822 76.5513 70 56.6691 70L 56.6691 47.3309L 10 94L 56.669 140.669L 56.669 117.9999C 103.061 117.9999 140.6697 80.3919 140.6697 34Z"></path></g></g></g><g id="g-root-tx_allowsme_ddl9yu7tbmrv-stroke" data-item-order="1000000000" data-item-id="tx_allowsme_ddl9yu7tbmrv" data-item-class="Label Stroke Indexed" data-item-index="3" data-renderer-id="0" transform="translate(314, 374)"></g><g id="g-root-tx_howtoenh_1414rsm7tboy1-stroke" data-item-order="1000000000" data-item-id="tx_howtoenh_1414rsm7tboy1" data-item-class="Label Stroke Title ColorFillBlack ColorStrokeBlack" data-item-index="none" data-renderer-id="0" transform="translate(302, 2)"></g><g id="g-root-tx_implemen_1hcla5y7tbnd4-stroke" data-item-order="1000000000" data-item-id="tx_implemen_1hcla5y7tbnd4" data-item-class="Label Stroke Indexed Indexed_1 ColorFillBlack ColorStrokeBlack" data-item-index="1" data-renderer-id="0" transform="translate(122, 182)"></g><g id="g-root-tx_implemen_1hcla5y7tbnd4-stroke" data-item-order="1000000000" data-item-id="tx_implemen_1hcla5y7tbnd4" data-item-class="Label Stroke Indexed Indexed_1 ColorFillBlack ColorStrokeBlack" data-item-index="1" data-renderer-id="0" transform="translate(122, 182)"></g><g id="g-root-onli_4j77w67tfw91-stroke" data-item-order="1000000000" data-item-id="onli_4j77w67tfw91" data-item-class="Icon Stroke Indexed Indexed_1 InsideFill InsideColorFill" data-item-index="1" data-renderer-id="0" transform="translate(308, 176)"><g id="onli_4j77w67tfw91-stroke" fill="none" stroke-linecap="butt" stroke-linejoin="miter" stroke-miterlimit="4" stroke="#ffffff" stroke-width="1"><g><path d="M 32.848 33.604C 32.848 36.296387 35.030613 38.479 37.723 38.479C 40.41539 38.479 42.598 36.296387 42.598 33.604C 42.598 30.911613 40.41539 28.729002 37.723 28.729002C 35.030613 28.729002 32.848 30.911613 32.848 33.604M 44.397999 44.479C 42.912983 42.194229 40.372971 40.815762 37.648003 40.815762C 34.923031 40.815762 32.383022 42.194229 30.898003 44.479004M 28.648001 35.625999L 13.948 35.625999C 12.505422 35.589981 11.364453 34.392635 11.398 32.949997L 11.398 15.334C 11.364453 13.891361 12.505422 12.694016 13.948 12.658L 25.531 12.658M 11.398 30.229L 28.648001 30.229M 27.073 30.229C 26.443575 27.463276 23.984446 25.500916 21.148001 25.500916C 18.311556 25.500916 15.852427 27.463276 15.223001 30.229002L 27.073 30.229ZM 17.435499 20.4415C 17.435097 22.492142 19.097357 24.15473 21.147999 24.15473C 23.198641 24.15473 24.860903 22.492142 24.8605 20.4415C 24.860903 18.390858 23.198641 16.72827 21.147999 16.72827C 19.097357 16.72827 17.435097 18.390858 17.435499 20.4415M 38.766998 12.5605L 36.130001 12.5605C 35.295425 12.559198 34.577679 13.151129 34.420074 13.970687C 34.262466 14.790245 34.709473 15.606166 35.485001 15.9145L 38.1595 16.9855C 38.935295 17.293936 39.382309 18.110283 39.224297 18.930054C 39.06628 19.749823 38.347858 20.341526 37.513 20.3395L 34.877499 20.3395M 36.821503 12.5605L 36.821503 11.5885M 36.821503 21.313L 36.821503 20.3395M 30.803501 11.521C 28.215412 14.682146 28.513704 19.306736 31.486454 22.109201C 34.459202 24.911665 39.093334 24.93696 42.0965 22.167114C 45.099663 19.397268 45.448425 14.776211 42.894997 11.587M 24.34 35.625999L 22.754501 40.816002M 19.504 40.816002L 28.648001 40.816002M 34.209999 30.229C 36.394001 33.044498 39.0895 33.604 42.598 33.604M 18.1915 18.203499C 19.927 20.071001 22.072001 20.4415 24.8605 20.4415"></path></g></g></g><g id="g-root-onli_4j77w67tfw91-stroke" data-item-order="1000000000" data-item-id="onli_4j77w67tfw91" data-item-class="Icon Stroke Indexed Indexed_1 InsideFill InsideColorFill" data-item-index="1" data-renderer-id="0" transform="translate(308, 176)"><g id="onli_4j77w67tfw91-stroke" fill="none" stroke-linecap="butt" stroke-linejoin="miter" stroke-miterlimit="4" stroke="#ffffff" stroke-width="1"><g><path d="M 32.848 33.604C 32.848 36.296387 35.030613 38.479 37.723 38.479C 40.41539 38.479 42.598 36.296387 42.598 33.604C 42.598 30.911613 40.41539 28.729002 37.723 28.729002C 35.030613 28.729002 32.848 30.911613 32.848 33.604M 44.397999 44.479C 42.912983 42.194229 40.372971 40.815762 37.648003 40.815762C 34.923031 40.815762 32.383022 42.194229 30.898003 44.479004M 28.648001 35.625999L 13.948 35.625999C 12.505422 35.589981 11.364453 34.392635 11.398 32.949997L 11.398 15.334C 11.364453 13.891361 12.505422 12.694016 13.948 12.658L 25.531 12.658M 11.398 30.229L 28.648001 30.229M 27.073 30.229C 26.443575 27.463276 23.984446 25.500916 21.148001 25.500916C 18.311556 25.500916 15.852427 27.463276 15.223001 30.229002L 27.073 30.229ZM 17.435499 20.4415C 17.435097 22.492142 19.097357 24.15473 21.147999 24.15473C 23.198641 24.15473 24.860903 22.492142 24.8605 20.4415C 24.860903 18.390858 23.198641 16.72827 21.147999 16.72827C 19.097357 16.72827 17.435097 18.390858 17.435499 20.4415M 38.766998 12.5605L 36.130001 12.5605C 35.295425 12.559198 34.577679 13.151129 34.420074 13.970687C 34.262466 14.790245 34.709473 15.606166 35.485001 15.9145L 38.1595 16.9855C 38.935295 17.293936 39.382309 18.110283 39.224297 18.930054C 39.06628 19.749823 38.347858 20.341526 37.513 20.3395L 34.877499 20.3395M 36.821503 12.5605L 36.821503 11.5885M 36.821503 21.313L 36.821503 20.3395M 30.803501 11.521C 28.215412 14.682146 28.513704 19.306736 31.486454 22.109201C 34.459202 24.911665 39.093334 24.93696 42.0965 22.167114C 45.099663 19.397268 45.448425 14.776211 42.894997 11.587M 24.34 35.625999L 22.754501 40.816002M 19.504 40.816002L 28.648001 40.816002M 34.209999 30.229C 36.394001 33.044498 39.0895 33.604 42.598 33.604M 18.1915 18.203499C 19.927 20.071001 22.072001 20.4415 24.8605 20.4415"></path></g></g></g><g id="g-root-1_8z0q0m7tfvgs-stroke" data-item-order="1000000000" data-item-id="1_8z0q0m7tfvgs" data-item-class="Icon Stroke Indexed InsideFill InsideColorFill" data-item-index="2" data-renderer-id="0" transform="translate(548, 176)"><g id="1_8z0q0m7tfvgs-stroke" fill="none" stroke-linecap="butt" stroke-linejoin="miter" stroke-miterlimit="4" stroke="#ffffff" stroke-width="1"><g><path d="M 45.25 40.75L 38.5 34L 12.25 34C 11.421573 34 10.75 33.328426 10.75 32.5L 10.75 16.75C 10.75 15.921573 11.421573 15.25 12.25 15.25L 43.75 15.25C 44.578426 15.25 45.25 15.921573 45.25 16.75ZM 10 10M 15.25 24.25L 18.25 27.25L 24.25 19.75M 28.75 21.25L 37 21.25M 28.75 27.25L 37 27.25"></path></g></g></g><g id="g-root-1_8z0q0m7tfvgs-stroke" data-item-order="1000000000" data-item-id="1_8z0q0m7tfvgs" data-item-class="Icon Stroke Indexed InsideFill InsideColorFill" data-item-index="2" data-renderer-id="0" transform="translate(548, 176)"><g id="1_8z0q0m7tfvgs-stroke" fill="none" stroke-linecap="butt" stroke-linejoin="miter" stroke-miterlimit="4" stroke="#ffffff" stroke-width="1"><g><path d="M 45.25 40.75L 38.5 34L 12.25 34C 11.421573 34 10.75 33.328426 10.75 32.5L 10.75 16.75C 10.75 15.921573 11.421573 15.25 12.25 15.25L 43.75 15.25C 44.578426 15.25 45.25 15.921573 45.25 16.75ZM 10 10M 15.25 24.25L 18.25 27.25L 24.25 19.75M 28.75 21.25L 37 21.25M 28.75 27.25L 37 27.25"></path></g></g></g><g id="g-root-tx_usecrite_1unfbg67tboxy-stroke" data-item-order="1000000000" data-item-id="tx_usecrite_1unfbg67tboxy" data-item-class="Label Stroke Indexed ColorFillBlack ColorStrokeBlack" data-item-index="2" data-renderer-id="0" transform="translate(626, 182)"></g><g id="g-root-tx_usecrite_1unfbg67tboxy-stroke" data-item-order="1000000000" data-item-id="tx_usecrite_1unfbg67tboxy" data-item-class="Label Stroke Indexed ColorFillBlack ColorStrokeBlack" data-item-index="2" data-renderer-id="0" transform="translate(626, 182)"></g><g id="g-root-tx_allowsfo_1lsesae7tbmkv-stroke" data-item-order="1000000000" data-item-id="tx_allowsfo_1lsesae7tbmkv" data-item-class="Label Stroke Indexed Indexed_1" data-item-index="1" data-renderer-id="0" transform="translate(2, 218)"></g><g id="g-root-tx_allowsfo_1lsesae7tbmkv-stroke" data-item-order="1000000000" data-item-id="tx_allowsfo_1lsesae7tbmkv" data-item-class="Label Stroke Indexed Indexed_1" data-item-index="1" data-renderer-id="0" transform="translate(2, 218)"></g><g id="g-root-tx_enablesu_1unfbg67tboxx-stroke" data-item-order="1000000000" data-item-id="tx_enablesu_1unfbg67tboxx" data-item-class="Label Stroke Indexed" data-item-index="2" data-renderer-id="0" transform="translate(626, 218)"></g><g id="g-root-tx_enablesu_1unfbg67tboxx-stroke" data-item-order="1000000000" data-item-id="tx_enablesu_1unfbg67tboxx" data-item-class="Label Stroke Indexed" data-item-index="2" data-renderer-id="0" transform="translate(626, 218)"></g><g id="g-root-kips_hunq9i7tfuo3-stroke" data-item-order="1000000000" data-item-id="kips_hunq9i7tfuo3" data-item-class="Icon Stroke Indexed InsideFill InsideColorFill" data-item-index="3" data-renderer-id="0" transform="translate(428, 260)"><g id="kips_hunq9i7tfuo3-stroke" fill="none" stroke-linecap="butt" stroke-linejoin="miter" stroke-miterlimit="4" stroke="#ffffff" stroke-width="1"><g><path d="M 20.5 10.75L 20.5 45.25M 37.375 45.25L 20.5 28L 37.375 10.75M 16 28L 40 28"></path></g></g></g><g id="g-root-kips_hunq9i7tfuo3-stroke" data-item-order="1000000000" data-item-id="kips_hunq9i7tfuo3" data-item-class="Icon Stroke Indexed InsideFill InsideColorFill" data-item-index="3" data-renderer-id="0" transform="translate(428, 260)"><g id="kips_hunq9i7tfuo3-stroke" fill="none" stroke-linecap="butt" stroke-linejoin="miter" stroke-miterlimit="4" stroke="#ffffff" stroke-width="1"><g><path d="M 20.5 10.75L 20.5 45.25M 37.375 45.25L 20.5 28L 37.375 10.75M 16 28L 40 28"></path></g></g></g><g id="g-root-tx_adoptzkp_24rli7tbocs-stroke" data-item-order="1000000000" data-item-id="tx_adoptzkp_24rli7tbocs" data-item-class="Label Stroke Indexed ColorFillBlack ColorStrokeBlack" data-item-index="3" data-renderer-id="0" transform="translate(356, 338)"></g><g id="g-root-tx_adoptzkp_24rli7tbocs-stroke" data-item-order="1000000000" data-item-id="tx_adoptzkp_24rli7tbocs" data-item-class="Label Stroke Indexed ColorFillBlack ColorStrokeBlack" data-item-index="3" data-renderer-id="0" transform="translate(356, 338)"></g><g id="g-root-tx_allowsme_ddl9yu7tbmrv-stroke" data-item-order="1000000000" data-item-id="tx_allowsme_ddl9yu7tbmrv" data-item-class="Label Stroke Indexed" data-item-index="3" data-renderer-id="0" transform="translate(314, 374)"></g><g id="g-root-tx_howtoenh_1414rsm7tboy1-stroke" data-item-order="1000000000" data-item-id="tx_howtoenh_1414rsm7tboy1" data-item-class="Label Stroke Title ColorFillBlack ColorStrokeBlack" data-item-index="none" data-renderer-id="0" transform="translate(302, 2)"></g></g></g></svg>