<?xml version="1.0" encoding="utf-8" standalone="yes"?>
<!DOCTYPE svg PUBLIC "-//W3C//DTD SVG 1.1//EN" "http://www.w3.org/Graphics/SVG/1.1/DTD/svg11.dtd">
<svg width="768" height="432" viewBox="0 0 768 432" style="fill:none;stroke:none;fill-rule:evenodd;clip-rule:evenodd;stroke-linecap:round;stroke-linejoin:round;stroke-miterlimit:1.5;" version="1.1" xmlns="http://www.w3.org/2000/svg" xmlns:xlink="http://www.w3.org/1999/xlink"><style id="fontImports"></style><rect id="" x="0" y="0" width="768" height="432" style="fill: #ffffff;"></rect><g id="items" style="isolation: isolate"><g id="blend" style="mix-blend-mode:normal"><g id="g-root-4.Rectangle_sy_dbpupy6fghzb-fill" data-item-order="999930308" data-item-id="4.Rectangle_sy_dbpupy6fghzb" data-item-class="Part Indexed Fill Stroke ColorStrokeBlack" data-item-index="4" data-renderer-id="0" transform="translate(278, 146)"></g><g id="g-root-4.Rectangle_sy_dbpupy6fghzb-fill" data-item-order="999930308" data-item-id="4.Rectangle_sy_dbpupy6fghzb" data-item-class="Part Indexed Fill Stroke ColorStrokeBlack" data-item-index="4" data-renderer-id="0" transform="translate(278, 146)"></g><g id="g-root-4.cu_sy_dbpupy6fghzc-fill" data-item-order="999930310" data-item-id="4.cu_sy_dbpupy6fghzc" data-item-class="Part Indexed Fill Stroke ColorStrokeBlack" data-item-index="4" data-renderer-id="0" transform="translate(242, 110)"></g><g id="g-root-4.cu_sy_dbpupy6fghzc-fill" data-item-order="999930310" data-item-id="4.cu_sy_dbpupy6fghzc" data-item-class="Part Indexed Fill Stroke ColorStrokeBlack" data-item-index="4" data-renderer-id="0" transform="translate(242, 110)"></g><g id="g-root-3.Rectangle_sy_hrjcue6fgh71-fill" data-item-order="999930312" data-item-id="3.Rectangle_sy_hrjcue6fgh71" data-item-class="Part Indexed Fill Stroke ColorStrokeBlack" data-item-index="3" data-renderer-id="0" transform="translate(278, 266)"></g><g id="g-root-3.Rectangle_sy_hrjcue6fgh71-fill" data-item-order="999930312" data-item-id="3.Rectangle_sy_hrjcue6fgh71" data-item-class="Part Indexed Fill Stroke ColorStrokeBlack" data-item-index="3" data-renderer-id="0" transform="translate(278, 266)"></g><g id="g-root-3.cu_sy_hrjcue6fgh72-fill" data-item-order="999930314" data-item-id="3.cu_sy_hrjcue6fgh72" data-item-class="Part Indexed Fill Stroke ColorStrokeBlack" data-item-index="3" data-renderer-id="0" transform="translate(242, 266)"></g><g id="g-root-3.cu_sy_hrjcue6fgh72-fill" data-item-order="999930314" data-item-id="3.cu_sy_hrjcue6fgh72" data-item-class="Part Indexed Fill Stroke ColorStrokeBlack" data-item-index="3" data-renderer-id="0" transform="translate(242, 266)"></g><g id="g-root-2.cu_sy_qwjhdy6ff4zn-fill" data-item-order="999930316" data-item-id="2.cu_sy_qwjhdy6ff4zn" data-item-class="Part Indexed Fill Stroke ColorStrokeBlack" data-item-index="2" data-renderer-id="0" transform="translate(398, 266)"></g><g id="g-root-2.cu_sy_qwjhdy6ff4zn-fill" data-item-order="999930316" data-item-id="2.cu_sy_qwjhdy6ff4zn" data-item-class="Part Indexed Fill Stroke ColorStrokeBlack" data-item-index="2" data-renderer-id="0" transform="translate(398, 266)"></g><g id="g-root-2.Rectangle_sy_hrjcue6fgh70-fill" data-item-order="999930318" data-item-id="2.Rectangle_sy_hrjcue6fgh70" data-item-class="Part Indexed Fill Stroke ColorStrokeBlack" data-item-index="2" data-renderer-id="0" transform="translate(398, 266)"></g><g id="g-root-2.Rectangle_sy_hrjcue6fgh70-fill" data-item-order="999930318" data-item-id="2.Rectangle_sy_hrjcue6fgh70" data-item-class="Part Indexed Fill Stroke ColorStrokeBlack" data-item-index="2" data-renderer-id="0" transform="translate(398, 266)"></g><g id="g-root-1.cu_sy_qwjhdy6ff4zl-fill" data-item-order="999930320" data-item-id="1.cu_sy_qwjhdy6ff4zl" data-item-class="Part Indexed Indexed_1 Fill Stroke ColorStrokeBlack" data-item-index="1" data-renderer-id="0" transform="translate(398, 110)"></g><g id="g-root-1.cu_sy_qwjhdy6ff4zl-fill" data-item-order="999930320" data-item-id="1.cu_sy_qwjhdy6ff4zl" data-item-class="Part Indexed Indexed_1 Fill Stroke ColorStrokeBlack" data-item-index="1" data-renderer-id="0" transform="translate(398, 110)"></g><g id="g-root-1.Rectangle_sy_qwjhdy6ff4zm-fill" data-item-order="999930322" data-item-id="1.Rectangle_sy_qwjhdy6ff4zm" data-item-class="Part Indexed Indexed_1 Fill Stroke ColorStrokeBlack" data-item-index="1" data-renderer-id="0" transform="translate(398, 146)"></g><g id="g-root-1.Rectangle_sy_qwjhdy6ff4zm-fill" data-item-order="999930322" data-item-id="1.Rectangle_sy_qwjhdy6ff4zm" data-item-class="Part Indexed Indexed_1 Fill Stroke ColorStrokeBlack" data-item-index="1" data-renderer-id="0" transform="translate(398, 146)"></g><g id="g-root-tx_linksonc_1lynj5y6ff477-fill" data-item-order="1000000000" data-item-id="tx_linksonc_1lynj5y6ff477" data-item-class="Label Stroke Indexed ColorFillBlack ColorStrokeBlack" data-item-index="2" data-renderer-id="0" transform="translate(530, 350)"><g id="tx_linksonc_1lynj5y6ff477-fill" stroke="none" fill="#484848"><g><text style="font: 15px Arial, Helvetica, sans-serif; white-space: pre;" font-weight="15px" font-size="Arial," font-family="Helvetica, sans-serif"><tspan x="12" y="30" dominant-baseline="ideographic">Links onchain addresses to </tspan><tspan x="12" y="48" dominant-baseline="ideographic">DIDs for comprehensive digital </tspan><tspan x="12" y="66" dominant-baseline="ideographic">asset management.</tspan></text></g></g></g><g id="g-root-conn_1luwrt26f2hvm-fill" data-item-order="1000000000" data-item-id="conn_1luwrt26f2hvm" data-item-class="Icon Stroke Indexed InsideFill InsideColorFill ColorStrokeBlack" data-item-index="4" data-renderer-id="0" transform="translate(290, 158)"></g><g id="g-root-tx_facilita_1d30ix26ff4zw-fill" data-item-order="1000000000" data-item-id="tx_facilita_1d30ix26ff4zw" data-item-class="Label Stroke Indexed Indexed_1 ColorFillBlack ColorStrokeBlack" data-item-index="1" data-renderer-id="0" transform="translate(530, 122)"><g id="tx_facilita_1d30ix26ff4zw-fill" stroke="none" fill="#484848"><g><text style="font: 15px Arial, Helvetica, sans-serif; white-space: pre;" font-weight="15px" font-size="Arial," font-family="Helvetica, sans-serif"><tspan x="12" y="30" dominant-baseline="ideographic">Facilitates secure sharing of </tspan><tspan x="12" y="48" dominant-baseline="ideographic">medical information through </tspan><tspan x="12" y="66" dominant-baseline="ideographic">verifiable credentials.</tspan></text></g></g></g><g id="g-root-tx_facilita_1d30ix26ff4zw-fill" data-item-order="1000000000" data-item-id="tx_facilita_1d30ix26ff4zw" data-item-class="Label Stroke Indexed Indexed_1 ColorFillBlack ColorStrokeBlack" data-item-index="1" data-renderer-id="0" transform="translate(530, 122)"><g id="tx_facilita_1d30ix26ff4zw-fill" stroke="none" fill="#484848"><g><text style="font: 15px Arial, Helvetica, sans-serif; white-space: pre;" font-weight="15px" font-size="Arial," font-family="Helvetica, sans-serif"><tspan x="12" y="30" dominant-baseline="ideographic">Facilitates secure sharing of </tspan><tspan x="12" y="48" dominant-baseline="ideographic">medical information through </tspan><tspan x="12" y="66" dominant-baseline="ideographic">verifiable credentials.</tspan></text></g></g></g><g id="g-root-wait_qpocli6f2hhl-fill" data-item-order="1000000000" data-item-id="wait_qpocli6f2hhl" data-item-class="Icon Stroke Indexed Indexed_1 InsideFill InsideColorFill ColorStrokeBlack" data-item-index="1" data-renderer-id="0" transform="translate(410, 158)"></g><g id="g-root-wait_qpocli6f2hhl-fill" data-item-order="1000000000" data-item-id="wait_qpocli6f2hhl" data-item-class="Icon Stroke Indexed Indexed_1 InsideFill InsideColorFill ColorStrokeBlack" data-item-index="1" data-renderer-id="0" transform="translate(410, 158)"></g><g id="g-root-tx_integrat_8zzk66ff2td-fill" data-item-order="1000000000" data-item-id="tx_integrat_8zzk66ff2td" data-item-class="Label Stroke Indexed ColorFillBlack ColorStrokeBlack" data-item-index="4" data-renderer-id="0" transform="translate(2, 122)"><g id="tx_integrat_8zzk66ff2td-fill" stroke="none" fill="#484848"><g><text style="font: 15px Arial, Helvetica, sans-serif; white-space: pre;" font-weight="15px" font-size="Arial," font-family="Helvetica, sans-serif"><tspan x="20.84" y="30" dominant-baseline="ideographic">Integrates NFT ownership with </tspan><tspan x="18.86" y="48" dominant-baseline="ideographic">gaming accounts for enhanced </tspan><tspan x="113.09" y="66" dominant-baseline="ideographic">user experience.</tspan></text></g></g></g><g id="g-root-tx_integrat_8zzk66ff2td-fill" data-item-order="1000000000" data-item-id="tx_integrat_8zzk66ff2td" data-item-class="Label Stroke Indexed ColorFillBlack ColorStrokeBlack" data-item-index="4" data-renderer-id="0" transform="translate(2, 122)"><g id="tx_integrat_8zzk66ff2td-fill" stroke="none" fill="#484848"><g><text style="font: 15px Arial, Helvetica, sans-serif; white-space: pre;" font-weight="15px" font-size="Arial," font-family="Helvetica, sans-serif"><tspan x="20.84" y="30" dominant-baseline="ideographic">Integrates NFT ownership with </tspan><tspan x="18.86" y="48" dominant-baseline="ideographic">gaming accounts for enhanced </tspan><tspan x="113.09" y="66" dominant-baseline="ideographic">user experience.</tspan></text></g></g></g><g id="g-root-tx_medicalr_vcczie6ff47c-fill" data-item-order="1000000000" data-item-id="tx_medicalr_vcczie6ff47c" data-item-class="Label Stroke Indexed Indexed_1 ColorStrokeBlack" data-item-index="1" data-renderer-id="0" transform="translate(530, 86)"><g id="tx_medicalr_vcczie6ff47c-fill" stroke="none" fill="#484848"><g><text style="font: bold 20px Arial, Helvetica, sans-serif; white-space: pre;" font-weight="bold" font-size="20" font-family="Arial, Helvetica, sans-serif"><tspan x="12" y="33" dominant-baseline="ideographic">Medical Records</tspan></text></g></g></g><g id="g-root-lock_1czw8na6f2fij-fill" data-item-order="1000000000" data-item-id="lock_1czw8na6f2fij" data-item-class="Icon Stroke Indexed InsideFill InsideColorFill ColorStrokeBlack" data-item-index="3" data-renderer-id="0" transform="translate(290, 278)"></g><g id="g-root-lock_1czw8na6f2fij-fill" data-item-order="1000000000" data-item-id="lock_1czw8na6f2fij" data-item-class="Icon Stroke Indexed InsideFill InsideColorFill ColorStrokeBlack" data-item-index="3" data-renderer-id="0" transform="translate(290, 278)"></g><g id="g-root-tx_medicalr_vcczie6ff47c-fill" data-item-order="1000000000" data-item-id="tx_medicalr_vcczie6ff47c" data-item-class="Label Stroke Indexed Indexed_1 ColorStrokeBlack" data-item-index="1" data-renderer-id="0" transform="translate(530, 86)"><g id="tx_medicalr_vcczie6ff47c-fill" stroke="none" fill="#484848"><g><text style="font: bold 20px Arial, Helvetica, sans-serif; white-space: pre;" font-weight="bold" font-size="20" font-family="Arial, Helvetica, sans-serif"><tspan x="12" y="33" dominant-baseline="ideographic">Medical Records</tspan></text></g></g></g><g id="g-root-tx_onchaing_zs6hmu6ff3f2-fill" data-item-order="1000000000" data-item-id="tx_onchaing_zs6hmu6ff3f2" data-item-class="Label Stroke Indexed ColorStrokeBlack" data-item-index="4" data-renderer-id="0" transform="translate(62, 86)"><g id="tx_onchaing_zs6hmu6ff3f2-fill" stroke="none" fill="#484848"><g><text style="font: bold 20px Arial, Helvetica, sans-serif; white-space: pre;" font-weight="bold" font-size="20" font-family="Arial, Helvetica, sans-serif"><tspan x="11.72" y="33" dominant-baseline="ideographic">Onchain Games</tspan></text></g></g></g><g id="g-root-tx_onchaing_zs6hmu6ff3f2-fill" data-item-order="1000000000" data-item-id="tx_onchaing_zs6hmu6ff3f2" data-item-class="Label Stroke Indexed ColorStrokeBlack" data-item-index="4" data-renderer-id="0" transform="translate(62, 86)"><g id="tx_onchaing_zs6hmu6ff3f2-fill" stroke="none" fill="#484848"><g><text style="font: bold 20px Arial, Helvetica, sans-serif; white-space: pre;" font-weight="bold" font-size="20" font-family="Arial, Helvetica, sans-serif"><tspan x="11.72" y="33" dominant-baseline="ideographic">Onchain Games</tspan></text></g></g></g><g id="g-root-tx_masksyst_4o70li6ff56w-fill" data-item-order="1000000000" data-item-id="tx_masksyst_4o70li6ff56w" data-item-class="Label Stroke Title ColorFillBlack ColorStrokeBlack" data-item-index="none" data-renderer-id="0" transform="translate(308, 2)"><g id="tx_masksyst_4o70li6ff56w-fill" stroke="none" fill="#484848"><g><text style="font: bold 25px Arial, Helvetica, sans-serif; white-space: pre;" font-weight="bold" font-size="25" font-family="Arial, Helvetica, sans-serif"><tspan x="16.25" y="42" dominant-baseline="ideographic">MaskMeta</tspan></text></g></g></g><g id="g-root-chai_8dlmu6f2gwc-fill" data-item-order="1000000000" data-item-id="chai_8dlmu6f2gwc" data-item-class="Icon Stroke Indexed InsideFill InsideColorFill ColorStrokeBlack" data-item-index="2" data-renderer-id="0" transform="translate(410, 278)"></g><g id="g-root-chai_8dlmu6f2gwc-fill" data-item-order="1000000000" data-item-id="chai_8dlmu6f2gwc" data-item-class="Icon Stroke Indexed InsideFill InsideColorFill ColorStrokeBlack" data-item-index="2" data-renderer-id="0" transform="translate(410, 278)"></g><g id="g-root-tx_zkpissue_zs6hmu6ff3f3-fill" data-item-order="1000000000" data-item-id="tx_zkpissue_zs6hmu6ff3f3" data-item-class="Label Stroke Indexed ColorStrokeBlack" data-item-index="3" data-renderer-id="0" transform="translate(110, 314)"><g id="tx_zkpissue_zs6hmu6ff3f3-fill" stroke="none" fill="#484848"><g><text style="font: bold 20px Arial, Helvetica, sans-serif; white-space: pre;" font-weight="bold" font-size="20" font-family="Arial, Helvetica, sans-serif"><tspan x="11.88" y="33" dominant-baseline="ideographic">ZKP Issuer</tspan></text></g></g></g><g id="g-root-tx_zkpissue_zs6hmu6ff3f3-fill" data-item-order="1000000000" data-item-id="tx_zkpissue_zs6hmu6ff3f3" data-item-class="Label Stroke Indexed ColorStrokeBlack" data-item-index="3" data-renderer-id="0" transform="translate(110, 314)"><g id="tx_zkpissue_zs6hmu6ff3f3-fill" stroke="none" fill="#484848"><g><text style="font: bold 20px Arial, Helvetica, sans-serif; white-space: pre;" font-weight="bold" font-size="20" font-family="Arial, Helvetica, sans-serif"><tspan x="11.88" y="33" dominant-baseline="ideographic">ZKP Issuer</tspan></text></g></g></g><g id="g-root-tx_onchainb_18nthvq6ff2md-fill" data-item-order="1000000000" data-item-id="tx_onchainb_18nthvq6ff2md" data-item-class="Label Stroke Indexed ColorStrokeBlack" data-item-index="2" data-renderer-id="0" transform="translate(530, 314)"><g id="tx_onchainb_18nthvq6ff2md-fill" stroke="none" fill="#484848"><g><text style="font: bold 20px Arial, Helvetica, sans-serif; white-space: pre;" font-weight="bold" font-size="20" font-family="Arial, Helvetica, sans-serif"><tspan x="12" y="33" dominant-baseline="ideographic">Onchain Portfolio</tspan></text></g></g></g><g id="g-root-tx_onchainb_18nthvq6ff2md-fill" data-item-order="1000000000" data-item-id="tx_onchainb_18nthvq6ff2md" data-item-class="Label Stroke Indexed ColorStrokeBlack" data-item-index="2" data-renderer-id="0" transform="translate(530, 314)"><g id="tx_onchainb_18nthvq6ff2md-fill" stroke="none" fill="#484848"><g><text style="font: bold 20px Arial, Helvetica, sans-serif; white-space: pre;" font-weight="bold" font-size="20" font-family="Arial, Helvetica, sans-serif"><tspan x="12" y="33" dominant-baseline="ideographic">Onchain Portfolio</tspan></text></g></g></g><g id="g-root-tx_enablesi_1qeh1ae6ff3ey-fill" data-item-order="1000000000" data-item-id="tx_enablesi_1qeh1ae6ff3ey" data-item-class="Label Stroke Indexed ColorFillBlack ColorStrokeBlack" data-item-index="3" data-renderer-id="0" transform="translate(2, 350)"><g id="tx_enablesi_1qeh1ae6ff3ey-fill" stroke="none" fill="#484848"><g><text style="font: 15px Arial, Helvetica, sans-serif; white-space: pre;" font-weight="15px" font-size="Arial," font-family="Helvetica, sans-serif"><tspan x="19.67" y="30" dominant-baseline="ideographic">Enables independent issuance </tspan><tspan x="30.55" y="48" dominant-baseline="ideographic">of verifiable credentials using </tspan><tspan x="68.08" y="66" dominant-baseline="ideographic">zero-knowledge proofs.</tspan></text></g></g></g><g id="g-root-tx_enablesi_1qeh1ae6ff3ey-fill" data-item-order="1000000000" data-item-id="tx_enablesi_1qeh1ae6ff3ey" data-item-class="Label Stroke Indexed ColorFillBlack ColorStrokeBlack" data-item-index="3" data-renderer-id="0" transform="translate(2, 350)"><g id="tx_enablesi_1qeh1ae6ff3ey-fill" stroke="none" fill="#484848"><g><text style="font: 15px Arial, Helvetica, sans-serif; white-space: pre;" font-weight="15px" font-size="Arial," font-family="Helvetica, sans-serif"><tspan x="19.67" y="30" dominant-baseline="ideographic">Enables independent issuance </tspan><tspan x="30.55" y="48" dominant-baseline="ideographic">of verifiable credentials using </tspan><tspan x="68.08" y="66" dominant-baseline="ideographic">zero-knowledge proofs.</tspan></text></g></g></g><g id="g-root-tx_linksonc_1lynj5y6ff477-fill" data-item-order="1000000000" data-item-id="tx_linksonc_1lynj5y6ff477" data-item-class="Label Stroke Indexed ColorFillBlack ColorStrokeBlack" data-item-index="2" data-renderer-id="0" transform="translate(530, 350)"><g id="tx_linksonc_1lynj5y6ff477-fill" stroke="none" fill="#484848"><g><text style="font: 15px Arial, Helvetica, sans-serif; white-space: pre;" font-weight="15px" font-size="Arial," font-family="Helvetica, sans-serif"><tspan x="12" y="30" dominant-baseline="ideographic">Links onchain addresses to </tspan><tspan x="12" y="48" dominant-baseline="ideographic">DIDs for comprehensive digital </tspan><tspan x="12" y="66" dominant-baseline="ideographic">asset management.</tspan></text></g></g></g><g id="g-root-tx_masksyst_4o70li6ff56w-fill" data-item-order="1000000000" data-item-id="tx_masksyst_4o70li6ff56w" data-item-class="Label Stroke Title ColorFillBlack ColorStrokeBlack" data-item-index="none" data-renderer-id="0" transform="translate(308, 2)"><g id="tx_masksyst_4o70li6ff56w-fill" stroke="none" fill="#484848"><g><text style="font: bold 25px Arial, Helvetica, sans-serif; white-space: pre;" font-weight="bold" font-size="25" font-family="Arial, Helvetica, sans-serif"><tspan x="16.25" y="42" dominant-baseline="ideographic">MaskMeta</tspan></text></g></g></g><g id="g-root-conn_1luwrt26f2hvm-fill" data-item-order="1000000000" data-item-id="conn_1luwrt26f2hvm" data-item-class="Icon Stroke Indexed InsideFill InsideColorFill ColorStrokeBlack" data-item-index="4" data-renderer-id="0" transform="translate(290, 158)"></g><g id="g-root-4.Rectangle_sy_dbpupy6fghzb-stroke" data-item-order="999930308" data-item-id="4.Rectangle_sy_dbpupy6fghzb" data-item-class="Part Indexed Fill Stroke ColorStrokeBlack" data-item-index="4" data-renderer-id="0" transform="translate(278, 146)"><g id="4.Rectangle_sy_dbpupy6fghzb-stroke" fill="none" stroke-linecap="butt" stroke-linejoin="miter" stroke-miterlimit="4" stroke="#484848" stroke-width="1"><g><path d="M 10 10L 82 10L 82 82L 10 82Z"></path></g></g></g><g id="g-root-4.Rectangle_sy_dbpupy6fghzb-stroke" data-item-order="999930308" data-item-id="4.Rectangle_sy_dbpupy6fghzb" data-item-class="Part Indexed Fill Stroke ColorStrokeBlack" data-item-index="4" data-renderer-id="0" transform="translate(278, 146)"><g id="4.Rectangle_sy_dbpupy6fghzb-stroke" fill="none" stroke-linecap="butt" stroke-linejoin="miter" stroke-miterlimit="4" stroke="#484848" stroke-width="1"><g><path d="M 10 10L 82 10L 82 82L 10 82Z"></path></g></g></g><g id="g-root-4.cu_sy_dbpupy6fghzc-stroke" data-item-order="999930310" data-item-id="4.cu_sy_dbpupy6fghzc" data-item-class="Part Indexed Fill Stroke ColorStrokeBlack" data-item-index="4" data-renderer-id="0" transform="translate(242, 110)"><g id="4.cu_sy_dbpupy6fghzc-stroke" fill="none" stroke-linecap="butt" stroke-linejoin="miter" stroke-miterlimit="4" stroke="#484848" stroke-width="1"><g><path d="M 10 10L 118 10L 118 28L 28 28L 28 118L 10 118L 10 10Z"></path></g></g></g><g id="g-root-4.cu_sy_dbpupy6fghzc-stroke" data-item-order="999930310" data-item-id="4.cu_sy_dbpupy6fghzc" data-item-class="Part Indexed Fill Stroke ColorStrokeBlack" data-item-index="4" data-renderer-id="0" transform="translate(242, 110)"><g id="4.cu_sy_dbpupy6fghzc-stroke" fill="none" stroke-linecap="butt" stroke-linejoin="miter" stroke-miterlimit="4" stroke="#484848" stroke-width="1"><g><path d="M 10 10L 118 10L 118 28L 28 28L 28 118L 10 118L 10 10Z"></path></g></g></g><g id="g-root-3.Rectangle_sy_hrjcue6fgh71-stroke" data-item-order="999930312" data-item-id="3.Rectangle_sy_hrjcue6fgh71" data-item-class="Part Indexed Fill Stroke ColorStrokeBlack" data-item-index="3" data-renderer-id="0" transform="translate(278, 266)"><g id="3.Rectangle_sy_hrjcue6fgh71-stroke" fill="none" stroke-linecap="butt" stroke-linejoin="miter" stroke-miterlimit="4" stroke="#484848" stroke-width="1"><g><path d="M 10 10L 82 10L 82 82L 10 82Z"></path></g></g></g><g id="g-root-3.Rectangle_sy_hrjcue6fgh71-stroke" data-item-order="999930312" data-item-id="3.Rectangle_sy_hrjcue6fgh71" data-item-class="Part Indexed Fill Stroke ColorStrokeBlack" data-item-index="3" data-renderer-id="0" transform="translate(278, 266)"><g id="3.Rectangle_sy_hrjcue6fgh71-stroke" fill="none" stroke-linecap="butt" stroke-linejoin="miter" stroke-miterlimit="4" stroke="#484848" stroke-width="1"><g><path d="M 10 10L 82 10L 82 82L 10 82Z"></path></g></g></g><g id="g-root-3.cu_sy_hrjcue6fgh72-stroke" data-item-order="999930314" data-item-id="3.cu_sy_hrjcue6fgh72" data-item-class="Part Indexed Fill Stroke ColorStrokeBlack" data-item-index="3" data-renderer-id="0" transform="translate(242, 266)"><g id="3.cu_sy_hrjcue6fgh72-stroke" fill="none" stroke-linecap="butt" stroke-linejoin="miter" stroke-miterlimit="4" stroke="#484848" stroke-width="1"><g><path d="M 10 10L 10 118L 118 118L 118 100L 28 100L 28 10L 10 10Z"></path></g></g></g><g id="g-root-3.cu_sy_hrjcue6fgh72-stroke" data-item-order="999930314" data-item-id="3.cu_sy_hrjcue6fgh72" data-item-class="Part Indexed Fill Stroke ColorStrokeBlack" data-item-index="3" data-renderer-id="0" transform="translate(242, 266)"><g id="3.cu_sy_hrjcue6fgh72-stroke" fill="none" stroke-linecap="butt" stroke-linejoin="miter" stroke-miterlimit="4" stroke="#484848" stroke-width="1"><g><path d="M 10 10L 10 118L 118 118L 118 100L 28 100L 28 10L 10 10Z"></path></g></g></g><g id="g-root-2.cu_sy_qwjhdy6ff4zn-stroke" data-item-order="999930316" data-item-id="2.cu_sy_qwjhdy6ff4zn" data-item-class="Part Indexed Fill Stroke ColorStrokeBlack" data-item-index="2" data-renderer-id="0" transform="translate(398, 266)"><g id="2.cu_sy_qwjhdy6ff4zn-stroke" fill="none" stroke-linecap="butt" stroke-linejoin="miter" stroke-miterlimit="4" stroke="#484848" stroke-width="1"><g><path d="M 100 10L 100 100L 10 100L 10 118L 118 118L 118 10L 100 10Z"></path></g></g></g><g id="g-root-2.cu_sy_qwjhdy6ff4zn-stroke" data-item-order="999930316" data-item-id="2.cu_sy_qwjhdy6ff4zn" data-item-class="Part Indexed Fill Stroke ColorStrokeBlack" data-item-index="2" data-renderer-id="0" transform="translate(398, 266)"><g id="2.cu_sy_qwjhdy6ff4zn-stroke" fill="none" stroke-linecap="butt" stroke-linejoin="miter" stroke-miterlimit="4" stroke="#484848" stroke-width="1"><g><path d="M 100 10L 100 100L 10 100L 10 118L 118 118L 118 10L 100 10Z"></path></g></g></g><g id="g-root-2.Rectangle_sy_hrjcue6fgh70-stroke" data-item-order="999930318" data-item-id="2.Rectangle_sy_hrjcue6fgh70" data-item-class="Part Indexed Fill Stroke ColorStrokeBlack" data-item-index="2" data-renderer-id="0" transform="translate(398, 266)"><g id="2.Rectangle_sy_hrjcue6fgh70-stroke" fill="none" stroke-linecap="butt" stroke-linejoin="miter" stroke-miterlimit="4" stroke="#484848" stroke-width="1"><g><path d="M 10 10L 82 10L 82 82L 10 82Z"></path></g></g></g><g id="g-root-2.Rectangle_sy_hrjcue6fgh70-stroke" data-item-order="999930318" data-item-id="2.Rectangle_sy_hrjcue6fgh70" data-item-class="Part Indexed Fill Stroke ColorStrokeBlack" data-item-index="2" data-renderer-id="0" transform="translate(398, 266)"><g id="2.Rectangle_sy_hrjcue6fgh70-stroke" fill="none" stroke-linecap="butt" stroke-linejoin="miter" stroke-miterlimit="4" stroke="#484848" stroke-width="1"><g><path d="M 10 10L 82 10L 82 82L 10 82Z"></path></g></g></g><g id="g-root-1.cu_sy_qwjhdy6ff4zl-stroke" data-item-order="999930320" data-item-id="1.cu_sy_qwjhdy6ff4zl" data-item-class="Part Indexed Indexed_1 Fill Stroke ColorStrokeBlack" data-item-index="1" data-renderer-id="0" transform="translate(398, 110)"><g id="1.cu_sy_qwjhdy6ff4zl-stroke" fill="none" stroke-linecap="butt" stroke-linejoin="miter" stroke-miterlimit="4" stroke="#484848" stroke-width="1"><g><path d="M 118 118L 118 10L 10 10L 10 28L 100 28L 100 118L 118 118Z"></path></g></g></g><g id="g-root-1.cu_sy_qwjhdy6ff4zl-stroke" data-item-order="999930320" data-item-id="1.cu_sy_qwjhdy6ff4zl" data-item-class="Part Indexed Indexed_1 Fill Stroke ColorStrokeBlack" data-item-index="1" data-renderer-id="0" transform="translate(398, 110)"><g id="1.cu_sy_qwjhdy6ff4zl-stroke" fill="none" stroke-linecap="butt" stroke-linejoin="miter" stroke-miterlimit="4" stroke="#484848" stroke-width="1"><g><path d="M 118 118L 118 10L 10 10L 10 28L 100 28L 100 118L 118 118Z"></path></g></g></g><g id="g-root-1.Rectangle_sy_qwjhdy6ff4zm-stroke" data-item-order="999930322" data-item-id="1.Rectangle_sy_qwjhdy6ff4zm" data-item-class="Part Indexed Indexed_1 Fill Stroke ColorStrokeBlack" data-item-index="1" data-renderer-id="0" transform="translate(398, 146)"><g id="1.Rectangle_sy_qwjhdy6ff4zm-stroke" fill="none" stroke-linecap="butt" stroke-linejoin="miter" stroke-miterlimit="4" stroke="#484848" stroke-width="1"><g><path d="M 10 10L 82 10L 82 82L 10 82Z"></path></g></g></g><g id="g-root-1.Rectangle_sy_qwjhdy6ff4zm-stroke" data-item-order="999930322" data-item-id="1.Rectangle_sy_qwjhdy6ff4zm" data-item-class="Part Indexed Indexed_1 Fill Stroke ColorStrokeBlack" data-item-index="1" data-renderer-id="0" transform="translate(398, 146)"><g id="1.Rectangle_sy_qwjhdy6ff4zm-stroke" fill="none" stroke-linecap="butt" stroke-linejoin="miter" stroke-miterlimit="4" stroke="#484848" stroke-width="1"><g><path d="M 10 10L 82 10L 82 82L 10 82Z"></path></g></g></g><g id="g-root-tx_linksonc_1lynj5y6ff477-stroke" data-item-order="1000000000" data-item-id="tx_linksonc_1lynj5y6ff477" data-item-class="Label Stroke Indexed ColorFillBlack ColorStrokeBlack" data-item-index="2" data-renderer-id="0" transform="translate(530, 350)"></g><g id="g-root-conn_1luwrt26f2hvm-stroke" data-item-order="1000000000" data-item-id="conn_1luwrt26f2hvm" data-item-class="Icon Stroke Indexed InsideFill InsideColorFill ColorStrokeBlack" data-item-index="4" data-renderer-id="0" transform="translate(290, 158)"><g id="conn_1luwrt26f2hvm-stroke" fill="none" stroke-linecap="butt" stroke-linejoin="miter" stroke-miterlimit="4" stroke="#484848" stroke-width="1"><g><path d="M 39 46.021999L 44 46.021999C 45.104568 46.021999 46 45.126568 46 44.021999L 46 28.021999M 32 36.021999L 18 36.021999C 14.134007 36.022003 11 39.156006 11 43.022003L 11 53.776001C 10.998895 55.56839 12.451607 57.021999 14.243999 57.021999L 14.243999 57.021999C 15.474281 57.020432 16.597946 56.323467 17.146 55.222L 19.746 50.560001L 30.246 50.560001L 32.846001 55.222C 33.520023 56.567013 35.029926 57.272617 36.494095 56.926819C 37.958267 56.58102 38.992947 55.274448 38.993999 53.77L 38.993999 43.021999C 38.994003 39.158348 35.863651 36.025314 32 36.022003ZM 29.5 44.98L 29.5 44.98M 29.5 44.98C 29.223858 44.98 29 45.203857 29 45.48C 29 45.756142 29.223858 45.98 29.5 45.98C 29.776142 45.98 30 45.756142 30 45.48C 30 45.203857 29.776142 44.98 29.5 44.98M 33.5 41.021999L 33.5 41.021999M 33.5 41.021999C 33.223858 41.021999 33 41.245857 33 41.521999C 33 41.798141 33.223858 42.021999 33.5 42.021999C 33.776142 42.021999 34 41.798141 34 41.521999C 34 41.245857 33.776142 41.021999 33.5 41.021999M 49.667999 28.021999L 51.521999 28.021999C 54.610882 27.641516 56.947559 25.043785 57 21.931999C 57.000641 20.280239 56.328777 18.699402 55.139126 17.55352C 53.949478 16.407637 52.344578 15.795475 50.694 15.858C 49.04142 12.328024 45.201508 10.372433 41.374619 11.111825C 37.547733 11.851217 34.712677 15.096478 34.493999 18.987999C 33.149376 18.708893 31.750544 19.049803 30.68511 19.916267C 29.619678 20.78273 29.000813 22.082716 29 23.455999C 29.014019 24.716099 29.541721 25.91589 30.461033 26.777815C 31.380342 27.63974 32.61161 28.089121 33.870003 28.022001L 49.669998 28.021999ZM 18 46.144001L 18 40.021999M 14.940001 43.082001L 21.060001 43.082001"></path></g></g></g><g id="g-root-tx_facilita_1d30ix26ff4zw-stroke" data-item-order="1000000000" data-item-id="tx_facilita_1d30ix26ff4zw" data-item-class="Label Stroke Indexed Indexed_1 ColorFillBlack ColorStrokeBlack" data-item-index="1" data-renderer-id="0" transform="translate(530, 122)"></g><g id="g-root-tx_facilita_1d30ix26ff4zw-stroke" data-item-order="1000000000" data-item-id="tx_facilita_1d30ix26ff4zw" data-item-class="Label Stroke Indexed Indexed_1 ColorFillBlack ColorStrokeBlack" data-item-index="1" data-renderer-id="0" transform="translate(530, 122)"></g><g id="g-root-wait_qpocli6f2hhl-stroke" data-item-order="1000000000" data-item-id="wait_qpocli6f2hhl" data-item-class="Icon Stroke Indexed Indexed_1 InsideFill InsideColorFill ColorStrokeBlack" data-item-index="1" data-renderer-id="0" transform="translate(410, 158)"><g id="wait_qpocli6f2hhl-stroke" fill="none" stroke-linecap="butt" stroke-linejoin="miter" stroke-miterlimit="4" stroke="#484848" stroke-width="1"><g><path d="M 27 41.18L 27 36.419998C 27.000139 36.094193 27.158991 35.788876 27.425718 35.601768C 27.692444 35.414661 28.0336 35.369225 28.34 35.48L 41 40L 41 57L 27.66 52.240002C 27.264053 52.096851 27.000179 51.721031 27 51.299999L 27 46.84M 55 41.18L 55 36.419998C 54.999863 36.094193 54.841007 35.788876 54.574284 35.601768C 54.307556 35.414661 53.9664 35.369225 53.66 35.48L 41 40L 41 57L 54.34 52.240002C 54.735947 52.096851 54.999821 51.721031 55 51.299999L 55 46.84M 36 22C 36 24.761425 38.238579 27 41 27C 43.761425 27 46 24.761425 46 22C 46 19.238577 43.761425 17 41 17C 38.238579 17 36 19.238577 36 22M 28 47C 26.343145 47 25 45.656857 25 44C 25 42.343147 26.343145 41 28 41L 30 41C 30.552284 41 31 41.447716 31 42L 31 46C 31 46.552284 30.552284 47 30 47ZM 54 47C 55.656857 47 57 45.656857 57 44C 57 42.343147 55.656857 41 54 41L 52 41C 51.447716 41 51 41.447716 51 42L 51 46C 51 46.552284 51.447716 47 52 47ZM 36 22C 36 24.761425 38.238579 27 41 27C 43.761425 27 46 24.761425 46 22C 46 19.238577 43.761425 17 41 17C 38.238579 17 36 19.238577 36 22M 29 19C 29 17.895432 28.10457 17 27 17L 23 17L 23 13C 23 11.895431 22.104568 11 21 11L 19 11C 17.895432 11 17 11.895431 17 13L 17 17L 13 17C 11.895431 17 11 17.895432 11 19L 11 21C 11 22.104568 11.895431 23 13 23L 17 23L 17 27C 17 28.10457 17.895432 29 19 29L 21 29C 22.104568 29 23 28.10457 23 27L 23 23L 27 23C 28.10457 23 29 22.104568 29 21ZM 50 36.760002C 48.356125 33.241386 44.823681 30.992777 40.940002 30.992777C 37.05632 30.992777 33.523876 33.241386 31.880001 36.760002"></path></g></g></g><g id="g-root-wait_qpocli6f2hhl-stroke" data-item-order="1000000000" data-item-id="wait_qpocli6f2hhl" data-item-class="Icon Stroke Indexed Indexed_1 InsideFill InsideColorFill ColorStrokeBlack" data-item-index="1" data-renderer-id="0" transform="translate(410, 158)"><g id="wait_qpocli6f2hhl-stroke" fill="none" stroke-linecap="butt" stroke-linejoin="miter" stroke-miterlimit="4" stroke="#484848" stroke-width="1"><g><path d="M 27 41.18L 27 36.419998C 27.000139 36.094193 27.158991 35.788876 27.425718 35.601768C 27.692444 35.414661 28.0336 35.369225 28.34 35.48L 41 40L 41 57L 27.66 52.240002C 27.264053 52.096851 27.000179 51.721031 27 51.299999L 27 46.84M 55 41.18L 55 36.419998C 54.999863 36.094193 54.841007 35.788876 54.574284 35.601768C 54.307556 35.414661 53.9664 35.369225 53.66 35.48L 41 40L 41 57L 54.34 52.240002C 54.735947 52.096851 54.999821 51.721031 55 51.299999L 55 46.84M 36 22C 36 24.761425 38.238579 27 41 27C 43.761425 27 46 24.761425 46 22C 46 19.238577 43.761425 17 41 17C 38.238579 17 36 19.238577 36 22M 28 47C 26.343145 47 25 45.656857 25 44C 25 42.343147 26.343145 41 28 41L 30 41C 30.552284 41 31 41.447716 31 42L 31 46C 31 46.552284 30.552284 47 30 47ZM 54 47C 55.656857 47 57 45.656857 57 44C 57 42.343147 55.656857 41 54 41L 52 41C 51.447716 41 51 41.447716 51 42L 51 46C 51 46.552284 51.447716 47 52 47ZM 36 22C 36 24.761425 38.238579 27 41 27C 43.761425 27 46 24.761425 46 22C 46 19.238577 43.761425 17 41 17C 38.238579 17 36 19.238577 36 22M 29 19C 29 17.895432 28.10457 17 27 17L 23 17L 23 13C 23 11.895431 22.104568 11 21 11L 19 11C 17.895432 11 17 11.895431 17 13L 17 17L 13 17C 11.895431 17 11 17.895432 11 19L 11 21C 11 22.104568 11.895431 23 13 23L 17 23L 17 27C 17 28.10457 17.895432 29 19 29L 21 29C 22.104568 29 23 28.10457 23 27L 23 23L 27 23C 28.10457 23 29 22.104568 29 21ZM 50 36.760002C 48.356125 33.241386 44.823681 30.992777 40.940002 30.992777C 37.05632 30.992777 33.523876 33.241386 31.880001 36.760002"></path></g></g></g><g id="g-root-tx_integrat_8zzk66ff2td-stroke" data-item-order="1000000000" data-item-id="tx_integrat_8zzk66ff2td" data-item-class="Label Stroke Indexed ColorFillBlack ColorStrokeBlack" data-item-index="4" data-renderer-id="0" transform="translate(2, 122)"></g><g id="g-root-tx_integrat_8zzk66ff2td-stroke" data-item-order="1000000000" data-item-id="tx_integrat_8zzk66ff2td" data-item-class="Label Stroke Indexed ColorFillBlack ColorStrokeBlack" data-item-index="4" data-renderer-id="0" transform="translate(2, 122)"></g><g id="g-root-tx_medicalr_vcczie6ff47c-stroke" data-item-order="1000000000" data-item-id="tx_medicalr_vcczie6ff47c" data-item-class="Label Stroke Indexed Indexed_1 ColorStrokeBlack" data-item-index="1" data-renderer-id="0" transform="translate(530, 86)"></g><g id="g-root-lock_1czw8na6f2fij-stroke" data-item-order="1000000000" data-item-id="lock_1czw8na6f2fij" data-item-class="Icon Stroke Indexed InsideFill InsideColorFill ColorStrokeBlack" data-item-index="3" data-renderer-id="0" transform="translate(290, 278)"><g id="lock_1czw8na6f2fij-stroke" fill="none" stroke-linecap="butt" stroke-linejoin="miter" stroke-miterlimit="4" stroke="#484848" stroke-width="1"><g><path d="M 37.428574 22L 54.57143 22C 54.57143 22 56.285713 22 56.285713 23.714287L 56.285713 35.714287C 56.285713 35.714287 56.285713 37.428574 54.57143 37.428574L 37.428574 37.428574C 37.428574 37.428574 35.714287 37.428574 35.714287 35.714287L 35.714287 23.714287C 35.714287 23.714287 35.714287 22 37.428574 22M 39.142857 22L 39.142857 18.571428C 39.142857 14.784333 42.212906 11.714286 46 11.714286C 49.787094 11.714286 52.857143 14.784333 52.857143 18.571428L 52.857143 22M 11.714286 39.142857L 22 39.142857C 26.73387 39.142857 30.571428 42.980419 30.571428 47.714287L 30.571428 47.714287M 20.285715 47.714287L 37.428574 47.714287C 41.215668 47.714287 44.285713 50.784332 44.285713 54.57143L 44.285713 54.57143C 44.285713 55.518204 43.518204 56.285713 42.57143 56.285713L 11.714286 56.285713"></path></g></g></g><g id="g-root-lock_1czw8na6f2fij-stroke" data-item-order="1000000000" data-item-id="lock_1czw8na6f2fij" data-item-class="Icon Stroke Indexed InsideFill InsideColorFill ColorStrokeBlack" data-item-index="3" data-renderer-id="0" transform="translate(290, 278)"><g id="lock_1czw8na6f2fij-stroke" fill="none" stroke-linecap="butt" stroke-linejoin="miter" stroke-miterlimit="4" stroke="#484848" stroke-width="1"><g><path d="M 37.428574 22L 54.57143 22C 54.57143 22 56.285713 22 56.285713 23.714287L 56.285713 35.714287C 56.285713 35.714287 56.285713 37.428574 54.57143 37.428574L 37.428574 37.428574C 37.428574 37.428574 35.714287 37.428574 35.714287 35.714287L 35.714287 23.714287C 35.714287 23.714287 35.714287 22 37.428574 22M 39.142857 22L 39.142857 18.571428C 39.142857 14.784333 42.212906 11.714286 46 11.714286C 49.787094 11.714286 52.857143 14.784333 52.857143 18.571428L 52.857143 22M 11.714286 39.142857L 22 39.142857C 26.73387 39.142857 30.571428 42.980419 30.571428 47.714287L 30.571428 47.714287M 20.285715 47.714287L 37.428574 47.714287C 41.215668 47.714287 44.285713 50.784332 44.285713 54.57143L 44.285713 54.57143C 44.285713 55.518204 43.518204 56.285713 42.57143 56.285713L 11.714286 56.285713"></path></g></g></g><g id="g-root-tx_medicalr_vcczie6ff47c-stroke" data-item-order="1000000000" data-item-id="tx_medicalr_vcczie6ff47c" data-item-class="Label Stroke Indexed Indexed_1 ColorStrokeBlack" data-item-index="1" data-renderer-id="0" transform="translate(530, 86)"></g><g id="g-root-tx_onchaing_zs6hmu6ff3f2-stroke" data-item-order="1000000000" data-item-id="tx_onchaing_zs6hmu6ff3f2" data-item-class="Label Stroke Indexed ColorStrokeBlack" data-item-index="4" data-renderer-id="0" transform="translate(62, 86)"></g><g id="g-root-tx_onchaing_zs6hmu6ff3f2-stroke" data-item-order="1000000000" data-item-id="tx_onchaing_zs6hmu6ff3f2" data-item-class="Label Stroke Indexed ColorStrokeBlack" data-item-index="4" data-renderer-id="0" transform="translate(62, 86)"></g><g id="g-root-tx_masksyst_4o70li6ff56w-stroke" data-item-order="1000000000" data-item-id="tx_masksyst_4o70li6ff56w" data-item-class="Label Stroke Title ColorFillBlack ColorStrokeBlack" data-item-index="none" data-renderer-id="0" transform="translate(308, 2)"></g><g id="g-root-chai_8dlmu6f2gwc-stroke" data-item-order="1000000000" data-item-id="chai_8dlmu6f2gwc" data-item-class="Icon Stroke Indexed InsideFill InsideColorFill ColorStrokeBlack" data-item-index="2" data-renderer-id="0" transform="translate(410, 278)"><g id="chai_8dlmu6f2gwc-stroke" fill="none" stroke-linecap="butt" stroke-linejoin="miter" stroke-miterlimit="4" stroke="#484848" stroke-width="1"><g><path d="M 11.004 34C 11.004 46.70034 21.29966 56.996002 34 56.996002C 46.70034 56.996002 56.996002 46.70034 56.996002 34C 56.996002 21.29966 46.70034 11.004 34 11.004C 21.29966 11.004 11.004 21.29966 11.004 34M 44.004002 39.003998L 34.003998 46.004002L 24.004 39.003998L 24.004 29.004L 34.003998 22.004L 44.004002 29.004L 44.004002 39.003998Z"></path></g></g></g><g id="g-root-chai_8dlmu6f2gwc-stroke" data-item-order="1000000000" data-item-id="chai_8dlmu6f2gwc" data-item-class="Icon Stroke Indexed InsideFill InsideColorFill ColorStrokeBlack" data-item-index="2" data-renderer-id="0" transform="translate(410, 278)"><g id="chai_8dlmu6f2gwc-stroke" fill="none" stroke-linecap="butt" stroke-linejoin="miter" stroke-miterlimit="4" stroke="#484848" stroke-width="1"><g><path d="M 11.004 34C 11.004 46.70034 21.29966 56.996002 34 56.996002C 46.70034 56.996002 56.996002 46.70034 56.996002 34C 56.996002 21.29966 46.70034 11.004 34 11.004C 21.29966 11.004 11.004 21.29966 11.004 34M 44.004002 39.003998L 34.003998 46.004002L 24.004 39.003998L 24.004 29.004L 34.003998 22.004L 44.004002 29.004L 44.004002 39.003998Z"></path></g></g></g><g id="g-root-tx_zkpissue_zs6hmu6ff3f3-stroke" data-item-order="1000000000" data-item-id="tx_zkpissue_zs6hmu6ff3f3" data-item-class="Label Stroke Indexed ColorStrokeBlack" data-item-index="3" data-renderer-id="0" transform="translate(110, 314)"></g><g id="g-root-tx_zkpissue_zs6hmu6ff3f3-stroke" data-item-order="1000000000" data-item-id="tx_zkpissue_zs6hmu6ff3f3" data-item-class="Label Stroke Indexed ColorStrokeBlack" data-item-index="3" data-renderer-id="0" transform="translate(110, 314)"></g><g id="g-root-tx_onchainb_18nthvq6ff2md-stroke" data-item-order="1000000000" data-item-id="tx_onchainb_18nthvq6ff2md" data-item-class="Label Stroke Indexed ColorStrokeBlack" data-item-index="2" data-renderer-id="0" transform="translate(530, 314)"></g><g id="g-root-tx_onchainb_18nthvq6ff2md-stroke" data-item-order="1000000000" data-item-id="tx_onchainb_18nthvq6ff2md" data-item-class="Label Stroke Indexed ColorStrokeBlack" data-item-index="2" data-renderer-id="0" transform="translate(530, 314)"></g><g id="g-root-tx_enablesi_1qeh1ae6ff3ey-stroke" data-item-order="1000000000" data-item-id="tx_enablesi_1qeh1ae6ff3ey" data-item-class="Label Stroke Indexed ColorFillBlack ColorStrokeBlack" data-item-index="3" data-renderer-id="0" transform="translate(2, 350)"></g><g id="g-root-tx_enablesi_1qeh1ae6ff3ey-stroke" data-item-order="1000000000" data-item-id="tx_enablesi_1qeh1ae6ff3ey" data-item-class="Label Stroke Indexed ColorFillBlack ColorStrokeBlack" data-item-index="3" data-renderer-id="0" transform="translate(2, 350)"></g><g id="g-root-tx_linksonc_1lynj5y6ff477-stroke" data-item-order="1000000000" data-item-id="tx_linksonc_1lynj5y6ff477" data-item-class="Label Stroke Indexed ColorFillBlack ColorStrokeBlack" data-item-index="2" data-renderer-id="0" transform="translate(530, 350)"></g><g id="g-root-tx_masksyst_4o70li6ff56w-stroke" data-item-order="1000000000" data-item-id="tx_masksyst_4o70li6ff56w" data-item-class="Label Stroke Title ColorFillBlack ColorStrokeBlack" data-item-index="none" data-renderer-id="0" transform="translate(308, 2)"></g><g id="g-root-conn_1luwrt26f2hvm-stroke" data-item-order="1000000000" data-item-id="conn_1luwrt26f2hvm" data-item-class="Icon Stroke Indexed InsideFill InsideColorFill ColorStrokeBlack" data-item-index="4" data-renderer-id="0" transform="translate(290, 158)"><g id="conn_1luwrt26f2hvm-stroke" fill="none" stroke-linecap="butt" stroke-linejoin="miter" stroke-miterlimit="4" stroke="#484848" stroke-width="1"><g><path d="M 39 46.021999L 44 46.021999C 45.104568 46.021999 46 45.126568 46 44.021999L 46 28.021999M 32 36.021999L 18 36.021999C 14.134007 36.022003 11 39.156006 11 43.022003L 11 53.776001C 10.998895 55.56839 12.451607 57.021999 14.243999 57.021999L 14.243999 57.021999C 15.474281 57.020432 16.597946 56.323467 17.146 55.222L 19.746 50.560001L 30.246 50.560001L 32.846001 55.222C 33.520023 56.567013 35.029926 57.272617 36.494095 56.926819C 37.958267 56.58102 38.992947 55.274448 38.993999 53.77L 38.993999 43.021999C 38.994003 39.158348 35.863651 36.025314 32 36.022003ZM 29.5 44.98L 29.5 44.98M 29.5 44.98C 29.223858 44.98 29 45.203857 29 45.48C 29 45.756142 29.223858 45.98 29.5 45.98C 29.776142 45.98 30 45.756142 30 45.48C 30 45.203857 29.776142 44.98 29.5 44.98M 33.5 41.021999L 33.5 41.021999M 33.5 41.021999C 33.223858 41.021999 33 41.245857 33 41.521999C 33 41.798141 33.223858 42.021999 33.5 42.021999C 33.776142 42.021999 34 41.798141 34 41.521999C 34 41.245857 33.776142 41.021999 33.5 41.021999M 49.667999 28.021999L 51.521999 28.021999C 54.610882 27.641516 56.947559 25.043785 57 21.931999C 57.000641 20.280239 56.328777 18.699402 55.139126 17.55352C 53.949478 16.407637 52.344578 15.795475 50.694 15.858C 49.04142 12.328024 45.201508 10.372433 41.374619 11.111825C 37.547733 11.851217 34.712677 15.096478 34.493999 18.987999C 33.149376 18.708893 31.750544 19.049803 30.68511 19.916267C 29.619678 20.78273 29.000813 22.082716 29 23.455999C 29.014019 24.716099 29.541721 25.91589 30.461033 26.777815C 31.380342 27.63974 32.61161 28.089121 33.870003 28.022001L 49.669998 28.021999ZM 18 46.144001L 18 40.021999M 14.940001 43.082001L 21.060001 43.082001"></path></g></g></g></g></g></svg>